<svg id="Layer_1" data-name="Layer 1" xmlns="http://www.w3.org/2000/svg" viewBox="0 0 1600.27 1128.76"><defs><style>.cls-1{fill:#ffbe2e;}.cls-2{fill:#9bcaf9;}.cls-3{fill:#b9d7fc;}.cls-4{fill:#444;}.cls-5{fill:#f7a491;}.cls-6{fill:#f48c7f;}.cls-7{fill:#177acc;}.cls-8{fill:#2b2b2b;}.cls-9{fill:#def1ff;}.cls-10{fill:#fff9f0;}.cls-11{fill:#4473b9;}.cls-12{fill:#b1dafc;}.cls-13{fill:#e6f1fc;}</style></defs><path class="cls-1" d="M1805.3-472" transform="translate(-73.91 -34.35)"/><g id="Layer_1-2" data-name="Layer 1"><path class="cls-2" d="M1574.35,1154.71s-230.07-305.6-374.85-352.47-8.33,139.28-8.33,139.28S964.26,666.71,867.87,682c-105.54,16.73-53.34,167.43-53.34,167.43s-71.62-107-188.17-88.6c-135.33,21.41,131.29,387,131.29,387Z" transform="translate(-73.91 -34.35)"/><path class="cls-3" d="M892.42,1147.84S759.59,865.4,624.51,853.22c-126.78-11.43-48.91,173.71-57,164.09s-116.23-194.47-219.34-144c-117.72,57.65,60.73,184.56,60.73,184.56s-244.63-91.13-263.79,4.57c-15.89,79.42,73,85.36,73,85.36Z" transform="translate(-73.91 -34.35)"/><path class="cls-4" d="M1546.59,864.85A832.83,832.83,0,0,1,1585,1149.94h3.67a838.1,838.1,0,0,0-38.53-282.81c-6.72-21.19-13.47-46-33.24-58.86-.38-.25-.71.35-.36.6C1534.29,821.64,1540.3,845,1546.59,864.85Z" transform="translate(-73.91 -34.35)"/><path class="cls-4" d="M1572.07,1149.94a1040.85,1040.85,0,0,0-148.64-261.49c-.64-.82-2.1.29-1.46,1.13a1039.51,1039.51,0,0,1,145.55,260.36Z" transform="translate(-73.91 -34.35)"/><path class="cls-4" d="M1555,815.32c-1.79,1.55-8,5.15-11.21,11.24-3.58,5.62-4.11,13.71-3.88,13.49.33.25-4.35-6.5-4.06-15.15-.35-8.47,4.27-18.85,8.28-21.63,7.44-6.7,16.85-5.06,17.58-.64S1558.72,811.72,1555,815.32Z" transform="translate(-73.91 -34.35)"/><path class="cls-4" d="M1524.41,881.66c2.22-.83,8.39-4.54,15.25-4.39,6.65-.42,14,3,13.68,3.12.06.41-3.58-6.95-11.3-10.87-7.24-4.4-18.56-5.37-22.93-3.2-9.46,3.27-12.57,12.31-9.06,15.09S1519.45,883.19,1524.41,881.66Z" transform="translate(-73.91 -34.35)"/><path class="cls-4" d="M1534.25,917c2.21-.82,8.39-4.54,15.25-4.38,6.65-.43,14,3,13.68,3.12.06.41-3.58-7-11.3-10.88-7.24-4.4-18.56-5.37-22.93-3.2-9.46,3.28-12.57,12.32-9.06,15.09S1529.29,918.49,1534.25,917Z" transform="translate(-73.91 -34.35)"/><path class="cls-4" d="M1451.07,970.43c2.21-.82,8.38-4.54,15.24-4.39,6.66-.42,14,3,13.69,3.12.06.41-3.59-6.95-11.3-10.87-7.25-4.4-18.57-5.37-22.93-3.2-9.47,3.27-12.58,12.31-9.07,15.08S1446.11,972,1451.07,970.43Z" transform="translate(-73.91 -34.35)"/><path class="cls-4" d="M1426,932.72c2.22-.82,8.39-4.54,15.25-4.38,6.65-.43,14,3,13.68,3.12.06.41-3.58-7-11.3-10.88-7.24-4.4-18.56-5.37-22.93-3.2-9.46,3.28-12.57,12.31-9.06,15.09S1421,934.25,1426,932.72Z" transform="translate(-73.91 -34.35)"/><path class="cls-4" d="M1570.94,856.56c-2,1.24-8.74,3.82-12.84,9.33-4.42,5-6.22,12.89-5.95,12.71.28.3-3.28-7.1-1.63-15.6,1-8.42,7.19-17.94,11.58-20,8.41-5.45,17.45-2.34,17.47,2.13S1575.19,853.59,1570.94,856.56Z" transform="translate(-73.91 -34.35)"/><path class="cls-4" d="M1588.15,898.22c-2.54.59-10.9.64-16.38,5.42-5.82,4-8.76,12.71-8.42,12.61.31.49-3.26-10-.44-19.53,2-9.7,10.42-18.36,15.92-18.91,10.66-2.75,21.26,5.09,20.85,10.5S1593.57,896.57,1588.15,898.22Z" transform="translate(-73.91 -34.35)"/><path class="cls-4" d="M1602,958c-2.61.15-10.86-1.2-17.06,2.58-6.42,3-10.78,11.06-10.42,11,.22.54-1.52-10.44,2.85-19.33,3.62-9.22,13.35-16.35,18.87-16,11-.92,20.1,8.6,18.79,13.85S1607.61,957.33,1602,958Z" transform="translate(-73.91 -34.35)"/><path class="cls-4" d="M1509.74,972.39c-2,.62-8.83,1.15-13,5.34-4.51,3.59-6.4,10.84-6.13,10.74.29.39-3.22-8-1.46-15.86,1.08-8,7.42-15.53,11.87-16.29,8.52-2.84,17.58,2.93,17.55,7.35S1514.06,970.75,1509.74,972.39Z" transform="translate(-73.91 -34.35)"/><path class="cls-4" d="M1505.84,815.28c1.28-.58,4.76-3,8.83-3.26a16.83,16.83,0,0,1,8.23,1.25,18.2,18.2,0,0,0-7.16-5.94c-4.48-2.29-11.22-2.36-13.7-.89-5.46,2.35-6.9,7.84-4.71,9.32S1503,816.4,1505.84,815.28Z" transform="translate(-73.91 -34.35)"/><path class="cls-4" d="M1521.8,795.72c-.4,1.34-2.39,5.12-2.06,9.18a16.79,16.79,0,0,0,2.33,8,18.16,18.16,0,0,1-6.84-6.32c-2.86-4.13-3.83-10.8-2.69-13.46,1.6-5.72,6.85-7.88,8.61-5.9S1522.54,792.73,1521.8,795.72Z" transform="translate(-73.91 -34.35)"/><path class="cls-4" d="M1410.26,896.93c1.28-.58,4.77-3,8.83-3.26a16.83,16.83,0,0,1,8.23,1.25,18.11,18.11,0,0,0-7.16-5.94c-4.48-2.28-11.21-2.36-13.7-.89-5.46,2.35-6.9,7.84-4.7,9.32S1407.4,898.06,1410.26,896.93Z" transform="translate(-73.91 -34.35)"/><path class="cls-4" d="M1428.34,877.73c-.52,1.31-2.81,4.91-2.81,9a16.65,16.65,0,0,0,1.67,8.15,18,18,0,0,1-6.3-6.85c-2.51-4.35-2.93-11.08-1.58-13.64,2.07-5.57,7.47-7.29,9.07-5.17S1429.31,874.81,1428.34,877.73Z" transform="translate(-73.91 -34.35)"/><path class="cls-4" d="M952.92,932.81c49.66,49.32,92.95,105.21,125.31,167.36,9.09,17.45,16.78,35.41,24.7,53.39,1,2.39,5.12.69,4.24-1.79s-1.77-4.93-2.65-7.39c-.52-1.45-3.15-1.38-2.91.39.33,2.54.67,5.08,1,7.62l4.56-.62c-12.31-32.49-29.39-63.82-47.78-93.23-55.09-88.17-112.14-131.36-106.47-125.73Z" transform="translate(-73.91 -34.35)"/><path class="cls-4" d="M1014.54,959.57c-1.47,1.68-6.81,5.87-9,12-2.61,5.71-2,13.34-1.85,13.1.34.19-4.92-5.49-5.79-13.61-1.44-7.86,1.5-18.15,4.88-21.27,6.06-7.24,15.06-7,16.33-2.92S1017.55,955.72,1014.54,959.57Z" transform="translate(-73.91 -34.35)"/><path class="cls-4" d="M980.83,923.49c-1.47,1.67-6.82,5.86-9,12-2.61,5.72-2,13.34-1.84,13.1.34.19-4.92-5.49-5.79-13.6-1.45-7.86,1.5-18.16,4.87-21.27,6.06-7.24,15.07-6.95,16.33-2.93S983.84,919.63,980.83,923.49Z" transform="translate(-73.91 -34.35)"/><path class="cls-4" d="M944.38,955c1.91-1.15,7-5.68,13.35-6.75,6.08-1.57,13.49.32,13.22.47.13.37-4.55-5.8-12.39-8.07-7.48-2.8-18.14-1.69-21.79,1.09-8.19,4.7-9.47,13.62-5.73,15.57S940.06,957.26,944.38,955Z" transform="translate(-73.91 -34.35)"/><path class="cls-4" d="M980.15,994.13c1.91-1.15,7-5.68,13.35-6.75,6.08-1.57,13.49.32,13.22.47.13.37-4.55-5.8-12.39-8.08-7.48-2.79-18.13-1.69-21.79,1.1-8.19,4.7-9.47,13.62-5.73,15.57S975.83,996.42,980.15,994.13Z" transform="translate(-73.91 -34.35)"/><path class="cls-4" d="M1006.32,1027.58c1.9-1.15,7-5.68,13.34-6.75,6.09-1.57,13.49.32,13.22.47.13.36-4.54-5.81-12.38-8.07-7.49-2.8-18.14-1.7-21.8,1.09-8.18,4.7-9.47,13.62-5.72,15.57S1002,1029.87,1006.32,1027.58Z" transform="translate(-73.91 -34.35)"/><path class="cls-4" d="M1028.09,1061c1.91-1.15,7-5.69,13.35-6.76,6.08-1.57,13.49.33,13.22.48.13.37-4.55-5.81-12.39-8.08-7.48-2.79-18.13-1.69-21.79,1.09-8.19,4.71-9.47,13.63-5.73,15.57S1023.77,1063.32,1028.09,1061Z" transform="translate(-73.91 -34.35)"/><path class="cls-4" d="M1042.46,996.09c-1.47,1.68-6.81,5.87-9,12-2.6,5.72-2,13.34-1.84,13.1.34.19-4.92-5.49-5.79-13.6-1.45-7.86,1.5-18.16,4.88-21.28,6.06-7.24,15.06-6.95,16.33-2.92S1045.47,992.24,1042.46,996.09Z" transform="translate(-73.91 -34.35)"/><path class="cls-4" d="M1067.22,1032.84c-1.47,1.68-6.81,5.87-9,12-2.6,5.71-2,13.34-1.84,13.1.34.19-4.92-5.49-5.79-13.61-1.45-7.86,1.5-18.15,4.88-21.27,6.06-7.24,15.06-6.95,16.32-2.92S1070.23,1029,1067.22,1032.84Z" transform="translate(-73.91 -34.35)"/><path class="cls-4" d="M976.46,1092.59a110.74,110.74,0,0,1,13.88,11.67,103.74,103.74,0,0,1,24.55,41.82c.32,1.06.42,2,1.4,2.65a.54.54,0,0,0,.73-.19c.6-1.11.1-2.15-.23-3.31a97.72,97.72,0,0,0-14.61-29.09c-12.44-17.29-21.67-21.29-25.66-23.65-.06,0-.12.06-.06.1Z" transform="translate(-73.91 -34.35)"/><path class="cls-4" d="M966.34,1102.89c1.63-.74,6.07-3.89,11.26-4.15a21.46,21.46,0,0,1,10.49,1.59c.07.3-3.09-5-9.13-7.57-5.71-2.92-14.3-3-17.47-1.14-7,3-8.8,10-6,11.89S962.69,1104.32,966.34,1102.89Z" transform="translate(-73.91 -34.35)"/><path class="cls-4" d="M986.69,1078c-.52,1.71-3.05,6.54-2.63,11.71a21.46,21.46,0,0,0,3,10.19c.31,0-5.41-2.39-8.71-8-3.65-5.27-4.89-13.77-3.44-17.17,2-7.29,8.73-10,11-7.51S987.63,1074.14,986.69,1078Z" transform="translate(-73.91 -34.35)"/><path class="cls-4" d="M91.23,756.16c7.24,4.35,13.88,10.23,20.48,15.47,36,28.56,72.42,56.19,122,114.28,66.3,77.67,115.82,165.86,146,262.19,1.08,3.44,6.53,2,5.43-1.5a743.89,743.89,0,0,0-82.56-176C207.93,822.72,90,755.39,91.23,756.16Z" transform="translate(-73.91 -34.35)"/><path class="cls-4" d="M270.24,774c7.92,52.18,35.15,99.1,53.91,147.79C374.35,1052,382.5,1150.45,387,1161.45a1,1,0,0,0,2-.28c1.25-10.21-9.72-80.88-31.53-155.18C321.26,882.45,283.3,834.2,272,773.5c-.21-1.14-1.88-.64-1.71.47Z" transform="translate(-73.91 -34.35)"/><path class="cls-4" d="M150.88,758.82c-1.35,2.7-6.94,10-7.7,18.79-1.46,8.4,1.9,18.23,2.07,17.84.51.14-8.34-5.52-12.27-15.89-4.59-9.83-4.25-24.36-.88-29.62,5.49-11.58,17.42-14.28,20.46-9.43S153.51,752.72,150.88,758.82Z" transform="translate(-73.91 -34.35)"/><path class="cls-4" d="M233.15,841.42c-1,2.84-5.68,10.75-5.4,19.5-.45,8.49,4,17.8,4.16,17.41.52.07-8.91-4.48-14-14.27-5.71-9.18-7.09-23.6-4.38-29.2,4.06-12.11,15.54-16.19,19.12-11.75S235,835.08,233.15,841.42Z" transform="translate(-73.91 -34.35)"/><path class="cls-4" d="M337.87,882.1c-2.11.72-8.83,1.69-13.75,5.9-5.1,3.66-8.41,10.55-8.12,10.44.2.34-1.53-7.21,1.76-14.68,2.66-7.53,10.34-15,14.82-16,8.86-3.26,16.53,1.48,15.62,5.6S342.4,880.26,337.87,882.1Z" transform="translate(-73.91 -34.35)"/><path class="cls-4" d="M348.27,907.56c-2.11.72-8.83,1.69-13.74,5.9-5.11,3.66-8.41,10.55-8.13,10.44.2.34-1.53-7.21,1.76-14.68,2.66-7.54,10.34-15,14.83-16,8.86-3.26,16.52,1.48,15.61,5.6S352.8,905.71,348.27,907.56Z" transform="translate(-73.91 -34.35)"/><path class="cls-4" d="M116,812.87c1.75-2.17,5.76-9.66,12.8-13.64,6.48-4.44,16-5.38,15.74-5.09.31.37-7.82-4.88-18-4.2-10-.09-22,5.76-25.15,10.59-7.61,9-5.3,20.06-.07,20.74C106.56,822.1,111.92,817.41,116,812.87Z" transform="translate(-73.91 -34.35)"/><path class="cls-4" d="M166.37,859.36c1.75-2.17,5.76-9.66,12.8-13.64,6.48-4.44,16-5.38,15.74-5.09.31.38-7.82-4.88-18-4.2-10-.09-22,5.76-25.15,10.59-7.61,9-5.31,20.06-.08,20.74C156.92,868.59,162.28,863.9,166.37,859.36Z" transform="translate(-73.91 -34.35)"/><path class="cls-4" d="M255.73,817.68c2.78.14,11.19-1,18.55,2.35,7.4,2.64,13.74,9.79,13.36,9.75-.12.48-.64-9.19-7.17-17-5.79-8.14-17.6-14.46-23.34-14.15-11.77-.86-19.35,7.48-16.84,12.12S249.65,817,255.73,817.68Z" transform="translate(-73.91 -34.35)"/><path class="cls-4" d="M270.48,853.36c2.78.14,11.19-1,18.55,2.35,7.4,2.64,13.74,9.79,13.36,9.76-.12.47-.64-9.2-7.17-17-5.79-8.14-17.6-14.46-23.34-14.14-11.77-.87-19.35,7.47-16.84,12.11S264.4,852.71,270.48,853.36Z" transform="translate(-73.91 -34.35)"/><path class="cls-4" d="M230.48,931c1.75-2.17,5.76-9.65,12.8-13.64,6.48-4.44,16-5.38,15.74-5.09.31.38-7.82-4.87-18-4.19-10-.09-22,5.76-25.15,10.59-7.61,9-5.31,20.05-.08,20.74S226.38,935.54,230.48,931Z" transform="translate(-73.91 -34.35)"/><path class="cls-4" d="M86.36,774.26c1.39-1.13,4.89-5.3,9.84-6.88,4.66-1.93,10.76-1.26,10.56-1.11.14.27-4.27-4.1-10.75-5-6.26-1.37-14.6.71-17.19,3.33-6,4.66-6,11.89-2.79,13S83.19,776.57,86.36,774.26Z" transform="translate(-73.91 -34.35)"/><path class="cls-4" d="M99.74,745c-.07,1.79-1.3,7.1.42,12,1.25,4.89,5.45,9.36,5.45,9.11.31-.05-5.84-1-10.47-5.57-4.86-4.18-8.21-12.1-7.67-15.74.13-7.58,5.9-11.93,8.72-10.06S99.67,741.05,99.74,745Z" transform="translate(-73.91 -34.35)"/><path class="cls-4" d="M97.17,1004.71C167,1026.06,227.42,1070.14,285.52,1113c39.18,28.89,35.89,34.37,44.09,39.12a1.8,1.8,0,0,0,2.61-2c-2.11-7.33-10.11-13.54-15.54-18.56a244.55,244.55,0,0,0-20-16.36c-14.77-11-30.12-21.27-45.34-31.62-31-21.07-62.63-41.37-96.51-57.48a370.67,370.67,0,0,0-57.54-21.92c-.36-.11-.52.45-.15.57Z" transform="translate(-73.91 -34.35)"/><path class="cls-4" d="M165.63,994.8c-1,2.84-5.68,10.75-5.39,19.5-.46,8.49,4,17.8,4.15,17.41.53.07-8.9-4.48-14-14.27-5.7-9.18-7.08-23.6-4.37-29.19,4.05-12.11,15.53-16.2,19.11-11.75S167.51,988.46,165.63,994.8Z" transform="translate(-73.91 -34.35)"/><path class="cls-4" d="M224.18,1029.22c-1,2.84-5.68,10.75-5.4,19.5-.45,8.48,4,17.8,4.16,17.4.52.08-8.91-4.48-14-14.26-5.71-9.18-7.09-23.6-4.38-29.2,4.06-12.11,15.54-16.19,19.12-11.75S226.06,1022.88,224.18,1029.22Z" transform="translate(-73.91 -34.35)"/><path class="cls-4" d="M282.6,1069.79c-1,2.84-5.68,10.75-5.39,19.5-.46,8.48,4,17.8,4.15,17.4.53.07-8.9-4.48-14-14.27-5.7-9.18-7.08-23.6-4.37-29.19,4-12.11,15.54-16.19,19.12-11.75S284.49,1063.45,282.6,1069.79Z" transform="translate(-73.91 -34.35)"/><path class="cls-4" d="M135.74,1049.93c1.74-2.17,5.75-9.65,12.79-13.64,6.48-4.44,16-5.38,15.74-5.09.31.38-7.82-4.88-18-4.2-10-.08-22,5.76-25.15,10.6-7.61,9-5.31,20.05-.08,20.74S131.64,1054.47,135.74,1049.93Z" transform="translate(-73.91 -34.35)"/><path class="cls-4" d="M196.68,1085.46c1.75-2.17,5.76-9.65,12.8-13.63,6.48-4.45,16-5.38,15.74-5.1.31.38-7.82-4.87-18-4.19-10-.09-22,5.76-25.15,10.59-7.61,9-5.31,20-.08,20.74S192.58,1090,196.68,1085.46Z" transform="translate(-73.91 -34.35)"/><path class="cls-4" d="M90.49,1016.68c1.39-1.13,4.89-5.31,9.84-6.88,4.66-1.93,10.75-1.26,10.56-1.11.14.27-4.27-4.1-10.75-5-6.27-1.37-14.6.71-17.2,3.33-6,4.66-6,11.89-2.78,13S87.32,1019,90.49,1016.68Z" transform="translate(-73.91 -34.35)"/><path class="cls-4" d="M103.87,987.39c-.07,1.79-1.3,7.1.42,12,1.25,4.89,5.45,9.36,5.45,9.11.31,0-5.84-1-10.47-5.58-4.86-4.17-8.21-12.09-7.67-15.74.13-7.57,5.9-11.92,8.72-10S103.8,983.47,103.87,987.39Z" transform="translate(-73.91 -34.35)"/><path class="cls-4" d="M1667.93,1145.57H87.07c-3.45,0-6.25,3.93-6.25,8.77s2.8,8.76,6.25,8.76H1667.93c3.45,0,6.25-3.92,6.25-8.76S1671.38,1145.57,1667.93,1145.57Z" transform="translate(-73.91 -34.35)"/><path class="cls-5" d="M1171.12,675.56c-8.32,12.2-79,50.78-79,50.78s-8.1-1.67-21.58,2.18c-8.65,2.47-25.11.18-22.32,5.35s18.07,1.66,16.55,5.57-32.81,13.33-30.28,18,31.35-6.13,30-2.63-28.92,10.52-25.34,17.14,31.43-11.17,33.35-7.62-19.12,17.36-16.24,22.69,24.63-18.47,25.45-16.32c.43,1.16-6.79,16.06-3.78,17.45,3.41,1.58,14.39-17,26.76-30.4,1.71-1.84,2.2-3.64,8.21-8.38,23.35-11.48,84.46-39.61,96.21-53.27,14.39-16.73,51.47-103,51.47-103l-59.79,6.11S1180.89,661.21,1171.12,675.56Z" transform="translate(-73.91 -34.35)"/><path class="cls-6" d="M1072.21,742.55a19.23,19.23,0,0,0,5.85,4.22c.39.08,7.22,4,15,.62C1087.73,747.73,1081.77,748.1,1072.21,742.55Z" transform="translate(-73.91 -34.35)"/><path class="cls-7" d="M1366.28,579.73s12,148,12,160.89-51.09,16.5-51.09,16.5L1311.58,605.2Z" transform="translate(-73.91 -34.35)"/><path class="cls-7" d="M1290.09,543.69s33.15-17.75,60.47-1.48S1385.32,654,1385.32,654L1297.8,664.5Z" transform="translate(-73.91 -34.35)"/><path class="cls-2" d="M1232.47,550.83c-3.32,1.15-16.9,10.82-24.81,26s-28.79,78.87-28.79,78.87l34.38,12.59Z" transform="translate(-73.91 -34.35)"/><path class="cls-5" d="M1405.45,1075.62s5.66,20.11,10.15,24.6,19.38,21.91,15.72,30.55-94.38,21-97.82,17.57,15.67-18,26.51-26.94,18.59-19.91,14-33.24-4.53-12-4.53-13.32S1405.45,1075.62,1405.45,1075.62Z" transform="translate(-73.91 -34.35)"/><path d="M1333.5,1148.34c-3.93-3.3,8.64-16.84,27.11-27.44,7.74,0,18.05-.54,26.78-2.72,13.67-3.42,24.16-15.26,27.26-19.11.29.4,22.28,21.57,18,31.7C1429,1139.41,1337.39,1151.61,1333.5,1148.34Z" transform="translate(-73.91 -34.35)"/><path class="cls-5" d="M1254.93,1085.38s-1.67,20.65,1.73,26,15.31,26.62,8.67,33.25c-6,6-89.08,2.14-91.68-2s11.61-16.38,24.13-22.73,22.5-15.38,21-29.37-1.81-12.71-1.52-14S1254.93,1085.38,1254.93,1085.38Z" transform="translate(-73.91 -34.35)"/><path d="M1163.32,1146c-4.33-2.75,14.82-20.08,35.16-26.4,7.55,1.68,17.73,3.42,26.73,3.19,14.09-.35,26.9-9.63,30.77-12.7.19.45,19.12,27.86,10.64,34.86C1260,1150.39,1169.91,1150.16,1163.32,1146Z" transform="translate(-73.91 -34.35)"/><path class="cls-8" d="M1248.87,792.91l53.65,155.45,61.54,143.91,51.54-13s-18.6-99.75-36.07-131.09c-13.23-23.71-22.46-159.79-22.46-159.79Z" transform="translate(-73.91 -34.35)"/><path d="M1274.63,819.07,1256,1092.27h-43.93S1192.92,806,1200,778.8s80.22-21.08,80.22-21.08Z" transform="translate(-73.91 -34.35)"/><path class="cls-9" d="M1232.47,550.83s56.61-17,65.33-15.87c9.54,1.2,32.74,13.49,32.74,13.49s-1.43,98.28,2.67,126.07S1366,791.34,1366,791.34s-40.41,23.43-108.36,15.82-63.26-24-63.26-24,6.45-98.4,12.89-141.74S1232.47,550.83,1232.47,550.83Z" transform="translate(-73.91 -34.35)"/><path d="M1420,413s3,13.82-11.44,18.69-23.38-45.9-31.59-55.92-33.08-12.77-46,7.26c-7.11,11-9.33,15.8-9.89,17.88-.46,1.71.19,1.6.19,1.6l3.9,7.29s12.52-7.59,17.24,6.28-9.2,36.57,2.74,55.42,33.82,5.51,33.82,5.51c18.16,12.2,39-6.43,45.76-24S1420,413,1420,413Z" transform="translate(-73.91 -34.35)"/><path class="cls-5" d="M1277.58,483.19l2,20.4L1297.8,535s-36,43.55-47.08,33.14c-2.48-2.32-8.74-48.41-8.74-48.41Z" transform="translate(-73.91 -34.35)"/><path class="cls-6" d="M1279.55,503.59l3.82,7c-11.22,10.07-25.61,19.13-39.21,24.34-1.27-8.46-2.18-15.2-2.18-15.2l35.6-36.5Z" transform="translate(-73.91 -34.35)"/><path class="cls-5" d="M1240.54,416.2s-9.51,8.62-13,13.5c-20.8,29-4,86.12,6.91,90.88,16.44,7.19,37.84-2.49,62-18.84s31.74-42.84,9.66-65.86S1240.54,416.2,1240.54,416.2Z" transform="translate(-73.91 -34.35)"/><path d="M1320.55,411.1l-6.57-6.3c-25.76,0-46.3-15.52-75.21.09-19.08,10.31-11.24,24.81-11.24,24.81,70.66,0,45.17,55.68,53.83,77.84S1344.05,481.78,1320.55,411.1Z" transform="translate(-73.91 -34.35)"/><path class="cls-5" d="M1271.12,473.81s1-18.28,12.21-14.66,2.47,31.16-6.83,30.19S1271.12,473.81,1271.12,473.81Z" transform="translate(-73.91 -34.35)"/><path class="cls-10" d="M1322.4,397.32s-10.65,6.6-14.94,6.05,6.57,13.37,12.33,14.82,3.73-4.11,5-6,5.7-.42,6.73-1.83C1333.83,407.16,1327.43,397.93,1322.4,397.32Z" transform="translate(-73.91 -34.35)"/><path class="cls-7" d="M1321.46,543.9s-12.74-1.92-23.66,39.41c-12.38,46.85,1,95.37,21.43,107.66s28.92,9.92,28.92,9.92l-3.21,28.89s-60.52-13.55-68.76-65.28c-13.51-84.77,26.34-128.44,26.34-128.44a48.86,48.86,0,0,1,9.82,2.15C1314.86,539.13,1321.46,543.9,1321.46,543.9Z" transform="translate(-73.91 -34.35)"/><path class="cls-5" d="M1311.3,731c-3.41,15.13-29.86,60.28-36.69,74.09-1.2.64-8,4.6-14.12,16-4.32,8-17.39,18.34-11.86,20s13.76-11.92,15.39-8-13.65,33.31-8.64,34.83,17.63-27.11,19.09-23.62-12.89,28.49-5.81,30.63,14.19-30.78,18-29.63-1.22,21.82,4.48,23.54,5.51-28.47,6.37-26.42,6.37,17.15,9.43,16c3.47-1.34-6.28-41.49-2.22-48.67h0c12.63-17,39.9-61,43.15-76.42,5.09-24.28,11.48-68.23,10.28-89-2.19-38-17.55-40.2-17.55-40.2s-24.71-13.77-26.59,17.52C1312.34,649.18,1315.33,713.05,1311.3,731Z" transform="translate(-73.91 -34.35)"/><path class="cls-2" d="M1325.22,546c5.26.66,19.53,5.86,24.54,22.83s18.23,65.19,15.91,88.71c0,0-56.31,7.33-56.31,5s-12.32-62.68-6.17-89.1C1308.55,550.45,1316.08,544.9,1325.22,546Z" transform="translate(-73.91 -34.35)"/><path class="cls-7" d="M1241.33,548.23,1201.7,690.67h0c1.75-18.6,3.66-36.37,5.58-49.26,6.44-43.35,25.19-90.57,25.19-90.57S1236,549.79,1241.33,548.23Z" transform="translate(-73.91 -34.35)"/><path d="M635.84,670.87H495.08v-35.5a21.61,21.61,0,0,1,21.62-21.61h97.52a21.62,21.62,0,0,1,21.62,21.61Z" transform="translate(-73.91 -34.35)"/><path d="M539.71,681.38c0,23.3-16.91,42.2-37.76,42.2s-37.77-18.89-37.77-42.2,16.91-42.21,37.77-42.21S539.71,658.07,539.71,681.38Z" transform="translate(-73.91 -34.35)"/><ellipse cx="577.38" cy="844.62" rx="37.76" ry="42.2"/><path d="M687.33,1091.9c0,23.31-16.91,42.21-37.76,42.21s-37.77-18.9-37.77-42.21,16.91-42.2,37.77-42.2S687.33,1068.6,687.33,1091.9Z" transform="translate(-73.91 -34.35)"/><path d="M666.16,681.38c0,23.3-16.91,42.2-37.76,42.2s-37.77-18.89-37.77-42.2,16.91-42.21,37.77-42.21S666.16,658.07,666.16,681.38Z" transform="translate(-73.91 -34.35)"/><polygon points="523.69 671.35 458.06 672.55 449.77 579.41 539.62 579.41 523.69 671.35"/><polygon points="535.15 599.93 491.76 615.46 452.13 585.08 458.6 535.54 504.69 516.38 552.02 554.47 535.15 599.93"/><path class="cls-11" d="M675.79,866.3a488.26,488.26,0,0,1-65.47-1.12c-10-.85-17.49-10.64-16.54-21.81q5.44-64.5,10.91-129c.89-10.52,8.95-18.4,18.4-18.08a350.43,350.43,0,0,0,39.56-.86c9.71-.77,18.22,7.19,19.14,18q5.54,65.47,11.08,131C693.83,855.85,686,865.79,675.79,866.3Z" transform="translate(-73.91 -34.35)"/><path class="cls-11" d="M729.67,1075.6,700.94,926.38c-2.39-12.36-12.17-21.2-23.49-21.2h-40c-11.32,0-21.11,8.83-23.49,21.2L585.28,1075.6h0v51.27a19.37,19.37,0,0,0,16.43,19.59c1.38.22,21-9,21-20v-25.9c0-13.79,10-25,22.34-25h55.24c8.28,0,15,7.5,15,16.75v54.11s14.31-5,14.31-13v-57.9Z" transform="translate(-73.91 -34.35)"/><path d="M528.22,879.45c-.34,23.31-17.53,41.95-38.38,41.64s-37.48-19.45-37.14-42.76,17.53-42,38.38-41.64S528.57,856.14,528.22,879.45Z" transform="translate(-73.91 -34.35)"/><path d="M513.86,1091.66c-.34,23.3-17.53,41.95-38.38,41.64s-37.48-19.45-37.14-42.76,17.53-42,38.39-41.64S514.21,1068.35,513.86,1091.66Z" transform="translate(-73.91 -34.35)"/><path class="cls-11" d="M522.61,866.3a488.11,488.11,0,0,1-65.46-1.12c-10-.85-17.49-10.64-16.55-21.81q5.46-64.5,10.91-129c.89-10.52,9-18.4,18.41-18.08a350.31,350.31,0,0,0,39.55-.86c9.72-.77,18.23,7.19,19.14,18q5.55,65.47,11.08,131C540.65,855.85,532.85,865.79,522.61,866.3Z" transform="translate(-73.91 -34.35)"/><path class="cls-11" d="M556.44,1076,529.91,926.35c-2.2-12.4-11.85-21.37-23.17-21.54l-39.95-.59c-11.32-.17-21.23,8.52-23.79,20.85l-30.94,148.77h0l-.76,51.28c-.15,10.55,6.71,19.39,15.78,21a17.3,17.3,0,0,0,4.27.2c9.77-.77,17.27-10.08,17.43-21l.38-25.91c.21-13.78,10.37-24.8,22.7-24.62l55.24.81c8.28.13,14.88,7.73,14.74,17l-.79,53.94s14.37-4.68,14.49-12.59l.85-57.89Z" transform="translate(-73.91 -34.35)"/><path class="cls-12" d="M767.92,103.5c-1,2.17-2,4.34-3,6.5,63.21,24.86,98.9,92.94,58.26,180.49,2.05,1,18.48,7.82,20.53,8.78C886.33,207.34,834.19,129.76,767.92,103.5Z" transform="translate(-73.91 -34.35)"/><path class="cls-13" d="M843,280.39c-15.07-6.55-37.34,12-49.58,41.06-11.66,27.68-10.45,55.83,2.8,63.9h0c21.38,6.95,54-.09,63.66-23l8.12-17.5C878.85,321.43,865.31,290.11,843,280.39Z" transform="translate(-73.91 -34.35)"/><path d="M447,428.68c-18.29-9.95-43.15.46-55.54,23.25s-7.62,49.33,10.66,59.28,43.15-.46,55.54-23.25S465.25,438.63,447,428.68Z" transform="translate(-73.91 -34.35)"/><path class="cls-12" d="M832.38,294.26c78-168-152.16-275-230.15-107l-5.87-2.73c81.95-176.64,324-64.17,242,112.5Z" transform="translate(-73.91 -34.35)"/><polygon points="718.05 561.45 668.87 460.8 605.58 506.93 640.95 596.97 718.05 561.45"/><path d="M725,584.32a42.34,42.34,0,1,0,59.73,2A42.32,42.32,0,0,0,725,584.32Z" transform="translate(-73.91 -34.35)"/><path d="M453.59,494.07l79.35-85.44-11.48-16.11c-17.65-24.78-53.23-23.62-77.89,2.53l-47.82,50.72Z" transform="translate(-73.91 -34.35)"/><path d="M254.72,672.71l-6.92-4.91a3.91,3.91,0,0,0-5.45.94q-4.66,6.68-8.75,13.66a3.9,3.9,0,0,0,1.54,5.38q3.71,2,7.4,4.05a3.91,3.91,0,0,0,5.26-1.46q3.66-6.24,7.83-12.21A3.93,3.93,0,0,0,254.72,672.71Z" transform="translate(-73.91 -34.35)"/><path d="M238.82,693.58l-3.35-1.68a3.92,3.92,0,0,0-5.26,1.76,197.84,197.84,0,0,0-7.79,18.26,3.89,3.89,0,0,0,2.45,5l3.54,1.2a3.9,3.9,0,0,0,4.92-2.36q3.18-8.62,7.23-16.95A3.93,3.93,0,0,0,238.82,693.58Z" transform="translate(-73.91 -34.35)"/><path class="cls-11" d="M417.94,479.51a152.8,152.8,0,0,1-15.05-9.87,34.53,34.53,0,0,0-44.75,3.48l-70.71,70a34.61,34.61,0,0,0,1.46,50.41,283.21,283.21,0,0,0,55.56,38.91,34.59,34.59,0,0,0,48.16-16.76q19.84-46.35,39.71-92.69A34.46,34.46,0,0,0,417.94,479.51Z" transform="translate(-73.91 -34.35)"/><path d="M310.9,616l-12.74-9.73a29.15,29.15,0,0,0-40.86,5.42L247,625.23l54,41.25,14.24-18.63A22.72,22.72,0,0,0,310.9,616Z" transform="translate(-73.91 -34.35)"/><path d="M274.7,651l-10.46-8a3.91,3.91,0,0,0-5.48.73l-11.09,14.51a3.9,3.9,0,0,0,.74,5.47l10.46,8a3.91,3.91,0,0,0,5.48-.72l11.08-14.52A3.9,3.9,0,0,0,274.7,651Z" transform="translate(-73.91 -34.35)"/><path d="M236.36,658c-2.3-1.65-4.61-3.28-6.92-4.91a3.93,3.93,0,0,0-5.46.93q-4.65,6.68-8.75,13.67a3.9,3.9,0,0,0,1.55,5.38q3.71,2,7.39,4a3.91,3.91,0,0,0,5.27-1.46q3.66-6.23,7.82-12.21A3.92,3.92,0,0,0,236.36,658Z" transform="translate(-73.91 -34.35)"/><path d="M220.45,678.89l-3.35-1.68a3.92,3.92,0,0,0-5.26,1.76q-4.35,9-7.78,18.26a3.89,3.89,0,0,0,2.44,5l3.55,1.2a3.88,3.88,0,0,0,4.91-2.36q3.19-8.62,7.24-16.94A3.94,3.94,0,0,0,220.45,678.89Z" transform="translate(-73.91 -34.35)"/><path d="M256.33,636.27l-10.46-8a3.92,3.92,0,0,0-5.48.73l-11.08,14.51A3.92,3.92,0,0,0,230,649l10.46,8a3.91,3.91,0,0,0,5.48-.73l11.09-14.51A3.91,3.91,0,0,0,256.33,636.27Z" transform="translate(-73.91 -34.35)"/><path d="M273,687.62c-2.3-1.65-4.61-3.28-6.92-4.91a3.92,3.92,0,0,0-5.45.93q-4.67,6.68-8.75,13.67a3.9,3.9,0,0,0,1.54,5.38q3.71,2,7.4,4a3.9,3.9,0,0,0,5.26-1.47c2.44-4.15,5.05-8.23,7.83-12.2A3.92,3.92,0,0,0,273,687.62Z" transform="translate(-73.91 -34.35)"/><path d="M257.08,708.48l-3.35-1.67a3.91,3.91,0,0,0-5.26,1.76q-4.35,8.94-7.79,18.25a3.91,3.91,0,0,0,2.45,5l3.55,1.2a3.9,3.9,0,0,0,4.91-2.37q3.19-8.62,7.23-16.94A3.93,3.93,0,0,0,257.08,708.48Z" transform="translate(-73.91 -34.35)"/><path d="M293,665.87l-10.46-8a3.9,3.9,0,0,0-5.48.72l-11.09,14.51a3.91,3.91,0,0,0,.74,5.48l10.46,8a3.91,3.91,0,0,0,5.48-.73l11.09-14.51A3.9,3.9,0,0,0,293,665.87Z" transform="translate(-73.91 -34.35)"/><path d="M304.26,677.56c2.75.7,5.48,1.41,8.22,2.13a3.91,3.91,0,0,1,2.8,4.77q-2.08,7.88-4.78,15.51a3.9,3.9,0,0,1-5.11,2.29c-2.61-1-5.23-2-7.86-3a3.92,3.92,0,0,1-2.28-5q2.4-6.82,4.27-13.86A3.92,3.92,0,0,1,304.26,677.56Z" transform="translate(-73.91 -34.35)"/><path d="M298.6,703.19l3.44,1.47a3.93,3.93,0,0,1,2,5.16q-4,9.1-8.92,17.74a3.88,3.88,0,0,1-5.4,1.36L286.56,727a3.9,3.9,0,0,1-1.36-5.28q4.51-8,8.27-16.46A3.92,3.92,0,0,1,298.6,703.19Z" transform="translate(-73.91 -34.35)"/><path d="M316.73,650.83l.49-.66L321,651a3.77,3.77,0,0,1,2.87,4.49l-4,18.24a3.75,3.75,0,0,1-4.48,2.86L303.86,674a3.79,3.79,0,0,1-2.83-2.67Z" transform="translate(-73.91 -34.35)"/><path class="cls-11" d="M642.11,613.5q47.51-57.27,97.31-112.85a16.65,16.65,0,0,0-2.81-24.7A626.55,626.55,0,0,0,523.3,378.14a16.6,16.6,0,0,0-20.59,15.27q-3.56,73-13.11,145.29c-1.06,8,4.35,14.22,11.44,18.1,14.92,8.16,20.3,8.53,112.18,56.35,3.48,1.17,4.48,2.14,9,4.84A16.65,16.65,0,0,0,642.11,613.5Z" transform="translate(-73.91 -34.35)"/><path d="M624.59,448.11l-5.88-2.73a23.37,23.37,0,0,1-11.35-31L629.81,366l48.26,22.44-22.43,48.33A23.37,23.37,0,0,1,624.59,448.11Z" transform="translate(-73.91 -34.35)"/><ellipse class="cls-11" cx="700.93" cy="269.61" rx="138.77" ry="144.21" transform="translate(82.79 752.76) rotate(-64.6)"/><path d="M769.37,349.36a364.06,364.06,0,0,0-136.66-62.91c-10.05-2.28-15.72-13.21-12.79-24.83q3.69-14.62,7.37-29.24c3.08-12.24,14.47-20.5,25.05-18A417.84,417.84,0,0,1,811.06,288.8c8.62,6.54,9.62,20.52,2.29,30.73l-16.86,23.52C789.54,352.74,777.61,355.48,769.37,349.36Z" transform="translate(-73.91 -34.35)"/><path class="cls-10" d="M788.28,310.56c-3.72,8-13.53,11.35-21.91,7.45s-12.17-13.55-8.45-21.56,13.53-11.34,21.91-7.45S792,302.55,788.28,310.56Z" transform="translate(-73.91 -34.35)"/><path class="cls-10" d="M693.56,263.48c-3.72,8-13.53,11.34-21.91,7.44s-12.17-13.55-8.45-21.56,13.52-11.34,21.91-7.44S697.27,255.47,693.56,263.48Z" transform="translate(-73.91 -34.35)"/><path class="cls-12" d="M586.62,179.51c2,.91,16.88,10.41,18.84,11.32C642.09,111.9,709.1,90.12,765.17,110.4a36.18,36.18,0,0,0,2.45-6.72C708.66,82.39,625.11,96.54,586.62,179.51Z" transform="translate(-73.91 -34.35)"/><path class="cls-13" d="M606.6,168.91c16.87,8.36,17.11,41.59.73,73.81-15.6,30.69-41.12,50.44-58,44.79h0c-21.88-13.6-39.83-47.38-27-72.78l9.31-20.06C544.15,167.8,581.57,156.51,606.6,168.91Z" transform="translate(-73.91 -34.35)"/><path d="M939.68,793c-1.69,2.27-3.38,4.54-5,6.82a3.92,3.92,0,0,0,.81,5.48q6.57,4.8,13.46,9a3.89,3.89,0,0,0,5.41-1.43q2.09-3.66,4.2-7.31a3.92,3.92,0,0,0-1.35-5.3c-4.09-2.53-8.11-5.23-12-8.1A3.91,3.91,0,0,0,939.68,793Z" transform="translate(-73.91 -34.35)"/><path d="M960.17,809.41l-1.74,3.31a3.93,3.93,0,0,0,1.64,5.31q8.83,4.54,18.06,8.19a3.9,3.9,0,0,0,5.07-2.34c.42-1.17.84-2.35,1.27-3.52a3.9,3.9,0,0,0-2.25-5q-8.55-3.37-16.77-7.61A3.94,3.94,0,0,0,960.17,809.41Z" transform="translate(-73.91 -34.35)"/><path class="cls-11" d="M759,619.88a152.31,152.31,0,0,1-11.68,13.69,34.61,34.61,0,0,0-2.21,44.87l60.4,79a34.52,34.52,0,0,0,50.14,4.93,283.28,283.28,0,0,0,45.59-50.25,34.65,34.65,0,0,0-10.52-49.93l-86.86-51.14A34.38,34.38,0,0,0,759,619.88Z" transform="translate(-73.91 -34.35)"/><path d="M884.25,735.59l-10,12.53a29.22,29.22,0,0,0,4.52,41l13.3,10.65,42.39-53.14L916.16,732A22.68,22.68,0,0,0,884.25,735.59Z" transform="translate(-73.91 -34.35)"/><path d="M918.39,772.58l-8.21,10.29a3.92,3.92,0,0,0,.6,5.5L925,799.78a3.9,3.9,0,0,0,5.49-.62l8.21-10.29a3.91,3.91,0,0,0-.61-5.5L923.87,772A3.89,3.89,0,0,0,918.39,772.58Z" transform="translate(-73.91 -34.35)"/><path d="M924.61,811.1c-1.7,2.26-3.38,4.53-5.06,6.81a3.94,3.94,0,0,0,.81,5.48q6.57,4.82,13.47,9.06a3.89,3.89,0,0,0,5.4-1.43q2.09-3.66,4.21-7.31a3.91,3.91,0,0,0-1.35-5.3q-6.15-3.81-12-8.1A3.91,3.91,0,0,0,924.61,811.1Z" transform="translate(-73.91 -34.35)"/><path d="M945.1,827.47c-.58,1.1-1.17,2.2-1.75,3.31a3.93,3.93,0,0,0,1.65,5.3,196.38,196.38,0,0,0,18.06,8.19,3.88,3.88,0,0,0,5.06-2.34c.43-1.17.85-2.34,1.28-3.52a3.9,3.9,0,0,0-2.25-5q-8.55-3.37-16.77-7.6A3.92,3.92,0,0,0,945.1,827.47Z" transform="translate(-73.91 -34.35)"/><path d="M903.31,790.63l-8.2,10.29a3.92,3.92,0,0,0,.6,5.5L910,817.83a3.91,3.91,0,0,0,5.49-.61l8.21-10.3a3.92,3.92,0,0,0-.61-5.5L908.8,790A3.9,3.9,0,0,0,903.31,790.63Z" transform="translate(-73.91 -34.35)"/><path d="M955,775.09q-2.54,3.4-5.06,6.82a3.93,3.93,0,0,0,.82,5.48c4.37,3.21,8.87,6.22,13.46,9.05a3.89,3.89,0,0,0,5.4-1.42c1.4-2.45,2.8-4.88,4.21-7.31a3.92,3.92,0,0,0-1.35-5.31c-4.09-2.53-8.11-5.23-12-8.09A3.92,3.92,0,0,0,955,775.09Z" transform="translate(-73.91 -34.35)"/><path d="M975.46,791.47l-1.74,3.31a3.91,3.91,0,0,0,1.64,5.3,196.38,196.38,0,0,0,18.06,8.19,3.89,3.89,0,0,0,5.07-2.33c.42-1.18.85-2.35,1.27-3.53a3.9,3.9,0,0,0-2.25-5q-8.55-3.37-16.77-7.6A3.92,3.92,0,0,0,975.46,791.47Z" transform="translate(-73.91 -34.35)"/><path d="M933.68,754.63l-8.21,10.29a3.92,3.92,0,0,0,.6,5.5l14.25,11.41a3.9,3.9,0,0,0,5.49-.62L954,770.92a3.91,3.91,0,0,0-.61-5.5L939.16,754A3.89,3.89,0,0,0,933.68,754.63Z" transform="translate(-73.91 -34.35)"/><path d="M945.61,743.57c.76-2.72,1.52-5.45,2.3-8.17a3.92,3.92,0,0,1,4.83-2.7q7.82,2.25,15.38,5.13A3.88,3.88,0,0,1,970.3,743q-1.62,3.9-3.21,7.8a3.91,3.91,0,0,1-5,2.18q-6.77-2.55-13.75-4.58A3.92,3.92,0,0,1,945.61,743.57Z" transform="translate(-73.91 -34.35)"/><path d="M971.08,749.8l1.55-3.41a3.92,3.92,0,0,1,5.2-1.93q9,4.21,17.52,9.3a3.9,3.9,0,0,1,1.24,5.44l-2,3.16a3.89,3.89,0,0,1-5.31,1.26q-7.9-4.71-16.26-8.64A3.93,3.93,0,0,1,971.08,749.8Z" transform="translate(-73.91 -34.35)"/><path d="M919.18,730.52l-.65-.51.92-3.77a3.76,3.76,0,0,1,4.54-2.77l18.14,4.42a3.74,3.74,0,0,1,2.75,4.54l-2.8,11.47a3.77,3.77,0,0,1-2.73,2.77Z" transform="translate(-73.91 -34.35)"/><path d="M561.13,1146.46a66.68,66.68,0,1,0-126.64,0Z" transform="translate(-73.91 -34.35)"/><path d="M728.38,1146.46a66.68,66.68,0,1,0-126.64,0Z" transform="translate(-73.91 -34.35)"/><path class="cls-13" d="M565.46,47.2a12.85,12.85,0,1,1-12.85-12.85A12.85,12.85,0,0,1,565.46,47.2Z" transform="translate(-73.91 -34.35)"/><polygon class="cls-13" points="495.2 151.27 488.26 85.32 505.56 73.92 479.79 65.68 497.13 53.59 482.21 46.61 475.66 13.46 481.76 12.25 487.71 42.31 509.54 52.53 493.69 63.58 519.87 71.95 494.85 88.44 501.39 150.62 495.2 151.27"/></g></svg>