<?xml version="1.0" encoding="utf-8"?>
<!-- Generator: Adobe Illustrator 25.0.0, SVG Export Plug-In . SVG Version: 6.00 Build 0)  -->
<svg version="1.1" id="Layer_1" xmlns="http://www.w3.org/2000/svg" xmlns:xlink="http://www.w3.org/1999/xlink" x="0px" y="0px"
	 viewBox="0 0 1728 1296" style="enable-background:new 0 0 1728 1296;" xml:space="preserve">
<style type="text/css">
	.st0{fill:#FFBE2E;}
	.st1{fill:#FFE1A3;}
	.st2{fill:#FFEBC7;}
	.st3{fill:#444444;}
	.st4{fill:#F7A491;}
	.st5{fill:#F48C7F;}
	.st6{fill:#D18C11;}
	.st7{fill:#2B2B2B;}
	.st8{fill:#FFF9F0;}
</style>
<g>
	<path class="st0" d="M1805.3-472"/>
	<g>
		<g id="Layer_1_1_">
			<g>
				<path class="st1" d="M1574.3,1154.7c0,0-230.1-305.6-374.9-352.5c-144.8-46.9-8.3,139.3-8.3,139.3S964.3,666.7,867.9,682
					c-105.5,16.7-53.3,167.4-53.3,167.4s-71.6-107.1-188.2-88.6c-135.3,21.4,131.3,387,131.3,387L1574.3,1154.7z"/>
				<path class="st2" d="M892.4,1147.8c0,0-132.8-282.4-267.9-294.6c-126.8-11.4-48.9,173.7-57,164.1
					c-8.1-9.6-116.2-194.5-219.3-144c-117.7,57.7,60.7,184.6,60.7,184.6s-244.6-91.1-263.8,4.6c-15.9,79.4,73,85.4,73,85.4
					L892.4,1147.8L892.4,1147.8z"/>
				<g>
					<g>
						<path class="st3" d="M1546.6,864.9c29,91.3,42.2,187.6,38.4,285.1h3.7c3.4-95.6-9.6-191.6-38.5-282.8
							c-6.7-21.2-13.5-46-33.2-58.9c-0.4-0.2-0.7,0.3-0.4,0.6C1534.3,821.6,1540.3,845,1546.6,864.9z"/>
					</g>
					<g>
						<path class="st3" d="M1572.1,1149.9c-35.4-90.7-84.4-179-148.6-261.5c-0.6-0.8-2.1,0.3-1.5,1.1
							c60.7,79.2,109.7,166.7,145.6,260.4H1572.1z"/>
					</g>
					<path class="st3" d="M1555,815.3c-1.8,1.5-8,5.2-11.2,11.2c-3.6,5.6-4.1,13.7-3.9,13.5c0.3,0.3-4.4-6.5-4.1-15.1
						c-0.4-8.5,4.3-18.8,8.3-21.6c7.4-6.7,16.9-5.1,17.6-0.6C1562.5,807,1558.7,811.7,1555,815.3z"/>
					<path class="st3" d="M1524.4,881.7c2.2-0.8,8.4-4.5,15.2-4.4c6.7-0.4,14,3,13.7,3.1c0.1,0.4-3.6-6.9-11.3-10.9
						c-7.2-4.4-18.6-5.4-22.9-3.2c-9.5,3.3-12.6,12.3-9.1,15.1C1513.5,884.3,1519.5,883.2,1524.4,881.7z"/>
					<path class="st3" d="M1534.2,917c2.2-0.8,8.4-4.5,15.2-4.4c6.7-0.4,14,3,13.7,3.1c0.1,0.4-3.6-6.9-11.3-10.9
						c-7.2-4.4-18.6-5.4-22.9-3.2c-9.5,3.3-12.6,12.3-9.1,15.1C1523.3,919.6,1529.3,918.5,1534.2,917z"/>
					<path class="st3" d="M1451.1,970.4c2.2-0.8,8.4-4.5,15.2-4.4c6.7-0.4,14,3,13.7,3.1c0.1,0.4-3.6-6.9-11.3-10.9
						c-7.2-4.4-18.6-5.4-22.9-3.2c-9.5,3.3-12.6,12.3-9.1,15.1C1440.2,973.1,1446.1,972,1451.1,970.4z"/>
					<path class="st3" d="M1426,932.7c2.2-0.8,8.4-4.5,15.3-4.4c6.6-0.4,14,3,13.7,3.1c0.1,0.4-3.6-7-11.3-10.9
						c-7.2-4.4-18.6-5.4-22.9-3.2c-9.5,3.3-12.6,12.3-9.1,15.1C1415.1,935.3,1421,934.2,1426,932.7z"/>
					<path class="st3" d="M1570.9,856.6c-2,1.2-8.7,3.8-12.8,9.3c-4.4,5-6.2,12.9-6,12.7c0.3,0.3-3.3-7.1-1.6-15.6
						c1-8.4,7.2-17.9,11.6-20c8.4-5.4,17.4-2.3,17.5,2.1C1579.7,849.6,1575.2,853.6,1570.9,856.6z"/>
					<path class="st3" d="M1588.2,898.2c-2.5,0.6-10.9,0.6-16.4,5.4c-5.8,4-8.8,12.7-8.4,12.6c0.3,0.5-3.3-10-0.4-19.5
						c2-9.7,10.4-18.4,15.9-18.9c10.7-2.8,21.3,5.1,20.8,10.5C1599.4,893.8,1593.6,896.6,1588.2,898.2z"/>
					<path class="st3" d="M1602,958c-2.6,0.1-10.9-1.2-17.1,2.6c-6.4,3-10.8,11.1-10.4,11c0.2,0.5-1.5-10.4,2.9-19.3
						c3.6-9.2,13.4-16.3,18.9-16c11-0.9,20.1,8.6,18.8,13.9C1613.8,955.6,1607.6,957.3,1602,958z"/>
					<path class="st3" d="M1509.7,972.4c-2,0.6-8.8,1.1-13,5.3c-4.5,3.6-6.4,10.8-6.1,10.7c0.3,0.4-3.2-8-1.5-15.9
						c1.1-8,7.4-15.5,11.9-16.3c8.5-2.8,17.6,2.9,17.6,7.3C1518.6,968.1,1514.1,970.7,1509.7,972.4z"/>
					<path class="st3" d="M1505.8,815.3c1.3-0.6,4.8-3.1,8.8-3.3c3.9-0.5,8.4,1.2,8.2,1.2c0.1,0.2-2.4-4-7.2-5.9
						c-4.5-2.3-11.2-2.4-13.7-0.9c-5.5,2.4-6.9,7.8-4.7,9.3C1499.5,817.3,1503,816.4,1505.8,815.3z"/>
					<path class="st3" d="M1521.8,795.7c-0.4,1.3-2.4,5.1-2.1,9.2c0,4,2.3,8.2,2.3,8c0.2,0-4.2-1.9-6.8-6.3
						c-2.9-4.1-3.8-10.8-2.7-13.5c1.6-5.7,6.9-7.9,8.6-5.9C1523,789.2,1522.5,792.7,1521.8,795.7z"/>
					<path class="st3" d="M1410.3,896.9c1.3-0.6,4.8-3.1,8.8-3.3c3.9-0.5,8.4,1.2,8.2,1.2c0.1,0.2-2.4-4-7.2-5.9
						c-4.5-2.3-11.2-2.4-13.7-0.9c-5.5,2.4-6.9,7.8-4.7,9.3C1403.9,899,1407.4,898.1,1410.3,896.9z"/>
					<path class="st3" d="M1428.3,877.7c-0.5,1.3-2.8,4.9-2.8,9c-0.3,3.9,1.6,8.3,1.7,8.2c0.2,0-4.1-2.2-6.3-6.8
						c-2.5-4.4-2.9-11.1-1.6-13.6c2.1-5.6,7.5-7.3,9.1-5.2C1430,871.3,1429.3,874.8,1428.3,877.7z"/>
				</g>
				<g>
					<g>
						<path class="st3" d="M952.9,932.8c49.7,49.3,92.9,105.2,125.3,167.4c9.1,17.4,16.8,35.4,24.7,53.4c1.1,2.4,5.1,0.7,4.2-1.8
							c-0.9-2.5-1.8-4.9-2.6-7.4c-0.5-1.4-3.1-1.4-2.9,0.4c0.3,2.5,0.7,5.1,1,7.6c1.5-0.2,3-0.4,4.6-0.6
							c-12.3-32.5-29.4-63.8-47.8-93.2C1004.3,970.4,947.2,927.2,952.9,932.8L952.9,932.8z"/>
					</g>
					<path class="st3" d="M1014.5,959.6c-1.5,1.7-6.8,5.9-9,12c-2.6,5.7-2,13.3-1.8,13.1c0.3,0.2-4.9-5.5-5.8-13.6
						c-1.4-7.9,1.5-18.2,4.9-21.3c6.1-7.2,15.1-6.9,16.3-2.9C1020.5,950.8,1017.6,955.7,1014.5,959.6z"/>
					<path class="st3" d="M980.8,923.5c-1.5,1.7-6.8,5.9-9,12c-2.6,5.7-2,13.3-1.8,13.1c0.3,0.2-4.9-5.5-5.8-13.6
						c-1.4-7.9,1.5-18.2,4.9-21.3c6.1-7.2,15.1-6.9,16.3-2.9C986.8,914.8,983.8,919.6,980.8,923.5z"/>
					<path class="st3" d="M944.4,955c1.9-1.2,7-5.7,13.3-6.8c6.1-1.6,13.5,0.3,13.2,0.5c0.1,0.4-4.5-5.8-12.4-8.1
						c-7.5-2.8-18.1-1.7-21.8,1.1c-8.2,4.7-9.5,13.6-5.7,15.6C934.8,959.3,940.1,957.3,944.4,955z"/>
					<path class="st3" d="M980.2,994.1c1.9-1.2,7-5.7,13.3-6.8c6.1-1.6,13.5,0.3,13.2,0.5c0.1,0.4-4.5-5.8-12.4-8.1
						c-7.5-2.8-18.1-1.7-21.8,1.1c-8.2,4.7-9.5,13.6-5.7,15.6C970.5,998.5,975.8,996.4,980.2,994.1z"/>
					<path class="st3" d="M1006.3,1027.6c1.9-1.2,7-5.7,13.3-6.8c6.1-1.6,13.5,0.3,13.2,0.5c0.1,0.4-4.5-5.8-12.4-8.1
						c-7.5-2.8-18.1-1.7-21.8,1.1c-8.2,4.7-9.5,13.6-5.7,15.6C996.7,1031.9,1002,1029.9,1006.3,1027.6z"/>
					<path class="st3" d="M1028.1,1061c1.9-1.2,7-5.7,13.3-6.8c6.1-1.6,13.5,0.3,13.2,0.5c0.1,0.4-4.5-5.8-12.4-8.1
						c-7.5-2.8-18.1-1.7-21.8,1.1c-8.2,4.7-9.5,13.6-5.7,15.6C1018.5,1065.4,1023.8,1063.3,1028.1,1061z"/>
					<path class="st3" d="M1042.5,996.1c-1.5,1.7-6.8,5.9-9,12c-2.6,5.7-2,13.3-1.8,13.1c0.3,0.2-4.9-5.5-5.8-13.6
						c-1.4-7.9,1.5-18.2,4.9-21.3c6.1-7.2,15.1-6.9,16.3-2.9C1048.4,987.4,1045.5,992.2,1042.5,996.1z"/>
					<path class="st3" d="M1067.2,1032.8c-1.5,1.7-6.8,5.9-9,12c-2.6,5.7-2,13.3-1.8,13.1c0.3,0.2-4.9-5.5-5.8-13.6
						c-1.4-7.9,1.5-18.2,4.9-21.3c6.1-7.2,15.1-6.9,16.3-2.9C1073.2,1024.1,1070.2,1029,1067.2,1032.8z"/>
					<g>
						<g>
							<path class="st3" d="M976.5,1092.6c2.9,1.8,10.1,7.9,13.9,11.7c10.2,10.4,19.5,25.1,24.5,41.8c0.3,1.1,0.4,2,1.4,2.6
								c0.2,0.1,0.6,0.1,0.7-0.2c0.6-1.1,0.1-2.1-0.2-3.3c-2.4-8.4-7.3-18.9-14.6-29.1C989.7,1098.8,980.5,1094.9,976.5,1092.6
								C976.5,1092.4,976.4,1092.5,976.5,1092.6L976.5,1092.6z"/>
						</g>
						<path class="st3" d="M966.3,1102.9c1.6-0.7,6.1-3.9,11.3-4.2c5-0.7,10.7,1.5,10.5,1.6c0.1,0.3-3.1-5-9.1-7.6
							c-5.7-2.9-14.3-3-17.5-1.1c-7,3-8.8,10-6,11.9C958.3,1105.5,962.7,1104.3,966.3,1102.9z"/>
						<path class="st3" d="M986.7,1077.9c-0.5,1.7-3.1,6.5-2.6,11.7c0,5,2.9,10.4,3,10.2c0.3,0-5.4-2.4-8.7-8
							c-3.6-5.3-4.9-13.8-3.4-17.2c2.1-7.3,8.7-10,11-7.5C988.2,1069.6,987.6,1074.1,986.7,1077.9z"/>
					</g>
				</g>
				<g>
					<g>
						<path class="st3" d="M91.2,756.2c7.2,4.4,13.9,10.2,20.5,15.5c35.9,28.6,72.4,56.2,122,114.3c66.3,77.7,115.8,165.9,146,262.2
							c1.1,3.4,6.5,2,5.4-1.5c-19.6-62-47.5-121.2-82.6-176C207.9,822.7,90,755.4,91.2,756.2L91.2,756.2z"/>
					</g>
					<g>
						<path class="st3" d="M270.2,774c7.9,52.2,35.1,99.1,53.9,147.8c50.2,130.3,58.3,228.7,62.9,239.7c0.5,1.1,1.9,0.9,2-0.3
							c1.2-10.2-9.7-80.9-31.5-155.2c-36.3-123.5-74.2-171.8-85.6-232.5C271.7,772.4,270.1,772.9,270.2,774L270.2,774z"/>
					</g>
					<path class="st3" d="M150.9,758.8c-1.4,2.7-6.9,10-7.7,18.8c-1.5,8.4,1.9,18.2,2.1,17.8c0.5,0.1-8.3-5.5-12.3-15.9
						c-4.6-9.8-4.3-24.4-0.9-29.6c5.5-11.6,17.4-14.3,20.5-9.4C155.7,745.3,153.5,752.7,150.9,758.8z"/>
					<path class="st3" d="M233.1,841.4c-1,2.8-5.7,10.8-5.4,19.5c-0.5,8.5,4,17.8,4.2,17.4c0.5,0.1-8.9-4.5-14-14.3
						c-5.7-9.2-7.1-23.6-4.4-29.2c4.1-12.1,15.5-16.2,19.1-11.7C236.4,827.5,235,835.1,233.1,841.4z"/>
					<path class="st3" d="M337.9,882.1c-2.1,0.7-8.8,1.7-13.7,5.9c-5.1,3.7-8.4,10.6-8.1,10.4c0.2,0.3-1.5-7.2,1.8-14.7
						c2.7-7.5,10.3-15,14.8-16c8.9-3.3,16.5,1.5,15.6,5.6C347.4,877.5,342.4,880.3,337.9,882.1z"/>
					<path class="st3" d="M348.3,907.6c-2.1,0.7-8.8,1.7-13.7,5.9c-5.1,3.7-8.4,10.6-8.1,10.4c0.2,0.3-1.5-7.2,1.8-14.7
						c2.7-7.5,10.3-15,14.8-16c8.9-3.3,16.5,1.5,15.6,5.6C357.8,903,352.8,905.7,348.3,907.6z"/>
					<path class="st3" d="M116,812.9c1.7-2.2,5.8-9.7,12.8-13.6c6.5-4.4,16-5.4,15.7-5.1c0.3,0.4-7.8-4.9-18-4.2
						c-10-0.1-22,5.8-25.1,10.6c-7.6,9-5.3,20.1-0.1,20.7C106.6,822.1,111.9,817.4,116,812.9z"/>
					<path class="st3" d="M166.4,859.4c1.7-2.2,5.8-9.7,12.8-13.6c6.5-4.4,16-5.4,15.7-5.1c0.3,0.4-7.8-4.9-18-4.2
						c-10-0.1-22,5.8-25.1,10.6c-7.6,9-5.3,20.1-0.1,20.7C156.9,868.6,162.3,863.9,166.4,859.4z"/>
					<path class="st3" d="M255.7,817.7c2.8,0.1,11.2-1,18.6,2.4c7.4,2.6,13.7,9.8,13.4,9.8c-0.1,0.5-0.6-9.2-7.2-17
						c-5.8-8.1-17.6-14.5-23.3-14.1c-11.8-0.9-19.3,7.5-16.8,12.1C242.7,815.4,249.6,817,255.7,817.7z"/>
					<path class="st3" d="M270.5,853.4c2.8,0.1,11.2-1,18.6,2.4c7.4,2.6,13.7,9.8,13.4,9.8c-0.1,0.5-0.6-9.2-7.2-17
						c-5.8-8.1-17.6-14.5-23.3-14.1c-11.8-0.9-19.3,7.5-16.8,12.1C257.5,851.1,264.4,852.7,270.5,853.4z"/>
					<path class="st3" d="M230.5,931c1.7-2.2,5.8-9.7,12.8-13.6c6.5-4.4,16-5.4,15.7-5.1c0.3,0.4-7.8-4.9-18-4.2
						c-10-0.1-22,5.8-25.1,10.6c-7.6,9-5.3,20.1-0.1,20.7C221,940.2,226.4,935.5,230.5,931z"/>
					<path class="st3" d="M86.4,774.3c1.4-1.1,4.9-5.3,9.8-6.9c4.7-1.9,10.8-1.3,10.6-1.1c0.1,0.3-4.3-4.1-10.8-5
						c-6.3-1.4-14.6,0.7-17.2,3.3c-6,4.7-6,11.9-2.8,13C79.2,778.8,83.2,776.6,86.4,774.3z"/>
					<path class="st3" d="M99.7,745c-0.1,1.8-1.3,7.1,0.4,12c1.3,4.9,5.5,9.4,5.5,9.1c0.3-0.1-5.8-0.9-10.5-5.6
						c-4.9-4.2-8.2-12.1-7.7-15.7c0.1-7.6,5.9-11.9,8.7-10.1C99.1,736.5,99.7,741,99.7,745z"/>
					<g>
						<g>
							<path class="st3" d="M97.2,1004.7c69.8,21.4,130.3,65.4,188.4,108.3c39.2,28.9,35.9,34.4,44.1,39.1c1.3,0.8,3-0.5,2.6-2
								c-2.1-7.3-10.1-13.5-15.5-18.6c-6.3-5.8-13.1-11.2-20-16.4c-14.8-11-30.1-21.3-45.3-31.6c-31-21.1-62.6-41.4-96.5-57.5
								c-18.6-8.8-37.8-16.3-57.5-21.9C97,1004,96.8,1004.6,97.2,1004.7L97.2,1004.7z"/>
						</g>
						<path class="st3" d="M165.6,994.8c-1,2.8-5.7,10.8-5.4,19.5c-0.5,8.5,4,17.8,4.2,17.4c0.5,0.1-8.9-4.5-14-14.3
							c-5.7-9.2-7.1-23.6-4.4-29.2c4.1-12.1,15.5-16.2,19.1-11.7C168.8,980.9,167.5,988.5,165.6,994.8z"/>
						<path class="st3" d="M224.2,1029.2c-1,2.8-5.7,10.8-5.4,19.5c-0.5,8.5,4,17.8,4.2,17.4c0.5,0.1-8.9-4.5-14-14.3
							c-5.7-9.2-7.1-23.6-4.4-29.2c4.1-12.1,15.5-16.2,19.1-11.8C227.4,1015.3,226.1,1022.9,224.2,1029.2z"/>
						<path class="st3" d="M282.6,1069.8c-1,2.8-5.7,10.8-5.4,19.5c-0.5,8.5,4,17.8,4.2,17.4c0.5,0.1-8.9-4.5-14-14.3
							c-5.7-9.2-7.1-23.6-4.4-29.2c4.1-12.1,15.5-16.2,19.1-11.7C285.8,1055.9,284.5,1063.4,282.6,1069.8z"/>
						<path class="st3" d="M135.7,1049.9c1.7-2.2,5.8-9.7,12.8-13.6c6.5-4.4,16-5.4,15.7-5.1c0.3,0.4-7.8-4.9-18-4.2
							c-10-0.1-22,5.8-25.1,10.6c-7.6,9-5.3,20.1-0.1,20.7C126.3,1059.2,131.6,1054.5,135.7,1049.9z"/>
						<path class="st3" d="M196.7,1085.5c1.7-2.2,5.8-9.7,12.8-13.6c6.5-4.4,16-5.4,15.7-5.1c0.3,0.4-7.8-4.9-18-4.2
							c-10-0.1-22,5.8-25.1,10.6c-7.6,9-5.3,20.1-0.1,20.7C187.2,1094.7,192.6,1090,196.7,1085.5z"/>
						<path class="st3" d="M90.5,1016.7c1.4-1.1,4.9-5.3,9.8-6.9c4.7-1.9,10.8-1.3,10.6-1.1c0.1,0.3-4.3-4.1-10.8-5
							c-6.3-1.4-14.6,0.7-17.2,3.3c-6,4.7-6,11.9-2.8,13C83.3,1021.2,87.3,1019,90.5,1016.7z"/>
						<path class="st3" d="M103.9,987.4c-0.1,1.8-1.3,7.1,0.4,12c1.3,4.9,5.5,9.4,5.5,9.1c0.3-0.1-5.8-0.9-10.5-5.6
							c-4.9-4.2-8.2-12.1-7.7-15.7c0.1-7.6,5.9-11.9,8.7-10.1C103.2,978.9,103.8,983.5,103.9,987.4z"/>
					</g>
				</g>
				<path class="st3" d="M1667.9,1145.6H87.1c-3.5,0-6.2,3.9-6.2,8.8c0,4.8,2.8,8.8,6.2,8.8h1580.9c3.5,0,6.2-3.9,6.2-8.8
					C1674.2,1149.5,1671.4,1145.6,1667.9,1145.6z"/>
				<g>
					<g>
						<path class="st4" d="M1171.1,675.6c-8.3,12.2-79,50.8-79,50.8s-8.1-1.7-21.6,2.2c-8.6,2.5-25.1,0.2-22.3,5.4
							c2.8,5.2,18.1,1.7,16.5,5.6c-1.5,3.9-32.8,13.3-30.3,18s31.3-6.1,30-2.6c-1.4,3.5-28.9,10.5-25.3,17.1
							c3.6,6.6,31.4-11.2,33.4-7.6c1.9,3.6-19.1,17.4-16.2,22.7c2.9,5.3,24.6-18.5,25.4-16.3c0.4,1.2-6.8,16.1-3.8,17.5
							c3.4,1.6,14.4-17,26.8-30.4c1.7-1.8,2.2-3.6,8.2-8.4c23.4-11.5,84.5-39.6,96.2-53.3c14.4-16.7,51.5-103.1,51.5-103.1
							l-59.8,6.1C1200.8,599.2,1180.9,661.2,1171.1,675.6z"/>
						<path class="st5" d="M1072.2,742.6c1.6,1.8,3.7,3.1,5.9,4.2c0.4,0.1,7.2,4,15,0.6C1087.7,747.7,1081.8,748.1,1072.2,742.6z"/>
					</g>
					<path class="st6" d="M1366.3,579.7c0,0,12,148,12,160.9s-51.1,16.5-51.1,16.5l-15.6-151.9L1366.3,579.7z"/>
					<path class="st6" d="M1290.1,543.7c0,0,33.1-17.7,60.5-1.5c27.3,16.3,34.8,111.8,34.8,111.8l-87.5,10.5L1290.1,543.7z"/>
					<path class="st2" d="M1232.5,550.8c-3.3,1.1-16.9,10.8-24.8,26c-7.9,15.2-28.8,78.9-28.8,78.9l34.4,12.6L1232.5,550.8z"/>
					<path class="st4" d="M1405.4,1075.6c0,0,5.7,20.1,10.2,24.6c4.5,4.5,19.4,21.9,15.7,30.6c-3.7,8.6-94.4,21-97.8,17.6
						s15.7-18,26.5-26.9c10.8-8.9,18.6-19.9,14.1-33.2c-4.5-13.3-4.5-12-4.5-13.3C1369.5,1073.5,1405.4,1075.6,1405.4,1075.6z"/>
					<path d="M1333.5,1148.3c-3.9-3.3,8.6-16.8,27.1-27.4c7.7,0,18-0.5,26.8-2.7c13.7-3.4,24.2-15.3,27.3-19.1
						c0.3,0.4,22.3,21.6,18,31.7C1429,1139.4,1337.4,1151.6,1333.5,1148.3z"/>
					<path class="st4" d="M1254.9,1085.4c0,0-1.7,20.7,1.7,26c3.4,5.4,15.3,26.6,8.7,33.2c-6,6-89.1,2.1-91.7-2
						c-2.6-4.1,11.6-16.4,24.1-22.7c12.5-6.4,22.5-15.4,21-29.4s-1.8-12.7-1.5-14C1217.5,1075.3,1254.9,1085.4,1254.9,1085.4z"/>
					<path d="M1163.3,1146c-4.3-2.8,14.8-20.1,35.2-26.4c7.5,1.7,17.7,3.4,26.7,3.2c14.1-0.4,26.9-9.6,30.8-12.7
						c0.2,0.4,19.1,27.9,10.6,34.9C1260,1150.4,1169.9,1150.2,1163.3,1146z"/>
					<path class="st7" d="M1248.9,792.9l53.7,155.5l61.5,143.9l51.5-12.9c0,0-18.6-99.8-36.1-131.1
						c-13.2-23.7-22.5-159.8-22.5-159.8L1248.9,792.9z"/>
					<path d="M1274.6,819.1l-18.6,273.2h-43.9c0,0-19.2-286.2-12.2-313.5c7-27.2,80.2-21.1,80.2-21.1L1274.6,819.1z"/>
					<path class="st8" d="M1232.5,550.8c0,0,56.6-17,65.3-15.9c9.5,1.2,32.7,13.5,32.7,13.5s-1.4,98.3,2.7,126.1
						c4.1,27.8,32.8,116.8,32.8,116.8s-40.4,23.4-108.4,15.8c-67.9-7.6-63.3-24-63.3-24s6.4-98.4,12.9-141.7
						C1213.7,598.1,1232.5,550.8,1232.5,550.8z"/>
					<path d="M1420,412.9c0,0,3,13.8-11.4,18.7c-14.4,4.9-23.4-45.9-31.6-55.9c-8.2-10-33.1-12.8-46,7.3c-7.1,11-9.3,15.8-9.9,17.9
						c-0.5,1.7,0.2,1.6,0.2,1.6l3.9,7.3c0,0,12.5-7.6,17.2,6.3c4.7,13.9-9.2,36.6,2.7,55.4c11.9,18.8,33.8,5.5,33.8,5.5
						c18.2,12.2,39-6.4,45.8-24.1C1431.4,435.3,1420,412.9,1420,412.9z"/>
					<path class="st4" d="M1277.6,483.2l2,20.4l18.2,31.4c0,0-36,43.5-47.1,33.1c-2.5-2.3-8.7-48.4-8.7-48.4L1277.6,483.2z"/>
					<path class="st5" d="M1279.6,503.6l3.8,7c-11.2,10.1-25.6,19.1-39.2,24.3c-1.3-8.5-2.2-15.2-2.2-15.2l35.6-36.5L1279.6,503.6z"
						/>
					<path class="st4" d="M1240.5,416.2c0,0-9.5,8.6-13,13.5c-20.8,29-3.9,86.1,6.9,90.9c16.4,7.2,37.8-2.5,62-18.8
						c24.1-16.3,31.7-42.8,9.7-65.9C1284,412.8,1240.5,416.2,1240.5,416.2z"/>
					<path d="M1320.5,411.1l-6.6-6.3c-25.8,0-46.3-15.5-75.2,0.1c-19.1,10.3-11.2,24.8-11.2,24.8c70.7,0,45.2,55.7,53.8,77.8
						C1290,529.7,1344,481.8,1320.5,411.1z"/>
					<path class="st4" d="M1271.1,473.8c0,0,1-18.3,12.2-14.7s2.5,31.2-6.8,30.2C1267.2,488.4,1271.1,473.8,1271.1,473.8z"/>
					<path class="st8" d="M1322.4,397.3c0,0-10.6,6.6-14.9,6.1c-4.3-0.5,6.6,13.4,12.3,14.8c5.8,1.4,3.7-4.1,4.9-6
						c1.2-1.9,5.7-0.4,6.7-1.8C1333.8,407.2,1327.4,397.9,1322.4,397.3z"/>
					<path class="st6" d="M1321.5,543.9c0,0-12.7-1.9-23.7,39.4c-12.4,46.8,1,95.4,21.4,107.7c20.5,12.3,28.9,9.9,28.9,9.9
						l-3.2,28.9c0,0-60.5-13.5-68.8-65.3c-13.5-84.8,26.3-128.4,26.3-128.4s5.5,0.6,9.8,2.1C1314.9,539.1,1321.5,543.9,1321.5,543.9
						z"/>
					<path class="st4" d="M1311.3,731c-3.4,15.1-29.9,60.3-36.7,74.1c-1.2,0.6-8,4.6-14.1,16c-4.3,8-17.4,18.3-11.9,20
						c5.5,1.7,13.8-11.9,15.4-8c1.6,3.9-13.7,33.3-8.6,34.8c5,1.5,17.6-27.1,19.1-23.6c1.5,3.5-12.9,28.5-5.8,30.6
						s14.2-30.8,18-29.6c3.8,1.1-1.2,21.8,4.5,23.5c5.7,1.7,5.5-28.5,6.4-26.4c0.9,2,6.4,17.2,9.4,16c3.5-1.3-6.3-41.5-2.2-48.7l0,0
						c12.6-17,39.9-61,43.1-76.4c5.1-24.3,11.5-68.2,10.3-89c-2.2-38-17.6-40.2-17.6-40.2s-24.7-13.8-26.6,17.5
						C1312.3,649.2,1315.3,713.1,1311.3,731z"/>
					<path class="st2" d="M1325.2,546c5.3,0.7,19.5,5.9,24.5,22.8c5,17,18.2,65.2,15.9,88.7c0,0-56.3,7.3-56.3,5
						s-12.3-62.7-6.2-89.1C1308.6,550.5,1316.1,544.9,1325.2,546z"/>
					<path class="st6" d="M1241.3,548.2l-39.6,142.4v0c1.7-18.6,3.7-36.4,5.6-49.3c6.4-43.3,25.2-90.6,25.2-90.6
						S1236,549.8,1241.3,548.2z"/>
				</g>
				<g>
					<g>
						<path d="M635.8,670.9H495.1v-35.5c0-11.9,9.7-21.6,21.6-21.6h97.5c11.9,0,21.6,9.7,21.6,21.6V670.9z"/>
						<path d="M539.7,681.4c0,23.3-16.9,42.2-37.8,42.2c-20.9,0-37.8-18.9-37.8-42.2c0-23.3,16.9-42.2,37.8-42.2
							C522.8,639.2,539.7,658.1,539.7,681.4z"/>
						<ellipse cx="651.3" cy="879" rx="37.8" ry="42.2"/>
						<path d="M687.3,1091.9c0,23.3-16.9,42.2-37.8,42.2c-20.9,0-37.8-18.9-37.8-42.2c0-23.3,16.9-42.2,37.8-42.2
							C670.4,1049.7,687.3,1068.6,687.3,1091.9z"/>
						<path d="M666.2,681.4c0,23.3-16.9,42.2-37.8,42.2c-20.9,0-37.8-18.9-37.8-42.2c0-23.3,16.9-42.2,37.8-42.2
							C649.3,639.2,666.2,658.1,666.2,681.4z"/>
						<polygon points="597.6,705.7 532,706.9 523.7,613.8 613.5,613.8 						"/>
						<polygon points="609.1,634.3 565.7,649.8 526,619.4 532.5,569.9 578.6,550.7 625.9,588.8 						"/>
						<path class="st6" d="M675.8,866.3c-21.8,1.1-43.7,0.7-65.5-1.1c-10-0.8-17.5-10.6-16.5-21.8c3.6-43,7.3-86,10.9-129
							c0.9-10.5,9-18.4,18.4-18.1c13.2,0.5,26.4,0.2,39.6-0.9c9.7-0.8,18.2,7.2,19.1,18c3.7,43.7,7.4,87.3,11.1,131
							C693.8,855.9,686,865.8,675.8,866.3z"/>
						<path class="st6" d="M729.7,1075.6l-28.7-149.2c-2.4-12.4-12.2-21.2-23.5-21.2h-40c-11.3,0-21.1,8.8-23.5,21.2l-28.7,149.2h0
							v51.3c0,10.6,7.3,18.2,16.4,19.6c1.4,0.2,21-9.1,21-20v-25.9c0-13.8,10-25,22.3-25h55.2c8.3,0,15,7.5,15,16.8v54.1
							c0,0,14.3-5.1,14.3-13L729.7,1075.6L729.7,1075.6L729.7,1075.6z"/>
						<path d="M528.2,879.4c-0.3,23.3-17.5,41.9-38.4,41.6c-20.9-0.3-37.5-19.4-37.1-42.8c0.3-23.3,17.5-41.9,38.4-41.6
							C511.9,837,528.6,856.1,528.2,879.4z"/>
						<path d="M513.9,1091.7c-0.3,23.3-17.5,41.9-38.4,41.6c-20.9-0.3-37.5-19.4-37.1-42.8c0.3-23.3,17.5-41.9,38.4-41.6
							C497.6,1049.2,514.2,1068.4,513.9,1091.7z"/>
						<path class="st6" d="M522.6,866.3c-21.8,1.1-43.7,0.7-65.5-1.1c-10-0.8-17.5-10.6-16.5-21.8c3.6-43,7.3-86,10.9-129
							c0.9-10.5,9-18.4,18.4-18.1c13.2,0.5,26.4,0.2,39.6-0.9c9.7-0.8,18.2,7.2,19.1,18c3.7,43.7,7.4,87.3,11.1,131
							C540.7,855.9,532.9,865.8,522.6,866.3z"/>
						<path class="st6" d="M556.4,1076l-26.5-149.6c-2.2-12.4-11.8-21.4-23.2-21.5l-39.9-0.6c-11.3-0.2-21.2,8.5-23.8,20.8
							l-30.9,148.8h0l-0.8,51.3c-0.2,10.6,6.7,19.4,15.8,21c1.4,0.2,2.8,0.3,4.3,0.2c9.8-0.8,17.3-10.1,17.4-21l0.4-25.9
							c0.2-13.8,10.4-24.8,22.7-24.6l55.2,0.8c8.3,0.1,14.9,7.7,14.7,17l-0.8,53.9c0,0,14.4-4.7,14.5-12.6L556.4,1076L556.4,1076
							L556.4,1076z"/>
						<g>
							<path class="st1" d="M767.9,103.5c-1,2.2-2,4.3-3,6.5c63.2,24.9,98.9,92.9,58.3,180.5c2,1,18.5,7.8,20.5,8.8
								C886.3,207.3,834.2,129.8,767.9,103.5z"/>
							<path class="st8" d="M843,280.4c-15.1-6.6-37.3,12-49.6,41.1c-11.7,27.7-10.5,55.8,2.8,63.9c0,0,0,0,0,0
								c21.4,6.9,54-0.1,63.7-23l8.1-17.5C878.8,321.4,865.3,290.1,843,280.4z"/>
							<path d="M447,428.7c-18.3-10-43.1,0.5-55.5,23.2c-12.4,22.8-7.6,49.3,10.7,59.3c18.3,9.9,43.1-0.5,55.5-23.2
								C470,465.2,465.2,438.6,447,428.7z"/>
							<path class="st1" d="M832.4,294.3c78-168-152.2-275-230.1-107c-2-0.9-3.9-1.8-5.9-2.7c81.9-176.6,324-64.2,242,112.5
								C836.4,296.1,834.4,295.2,832.4,294.3z"/>
							<polygon points="792,595.8 742.8,495.2 679.5,541.3 714.9,631.3 							"/>
							<path d="M725,584.3c-17,15.9-17.9,42.7-1.9,59.8c16,17.1,42.7,18,59.7,2c17-15.9,17.9-42.7,1.9-59.8
								C768.8,569.3,742,568.4,725,584.3z"/>
							<path d="M453.6,494.1l79.4-85.4l-11.5-16.1c-17.7-24.8-53.2-23.6-77.9,2.5l-47.8,50.7L453.6,494.1z"/>
							<g>
								<g>
									<path d="M254.7,672.7c-2.3-1.6-4.6-3.3-6.9-4.9c-1.8-1.2-4.2-0.8-5.5,0.9c-3.1,4.5-6,9-8.8,13.7c-1.1,1.9-0.4,4.3,1.5,5.4
										c2.5,1.3,4.9,2.7,7.4,4c1.9,1,4.2,0.4,5.3-1.5c2.4-4.2,5.1-8.2,7.8-12.2C256.9,676.4,256.5,674,254.7,672.7z"/>
									<path d="M238.8,693.6c-1.1-0.6-2.2-1.1-3.3-1.7c-1.9-1-4.3-0.2-5.3,1.8c-2.9,6-5.5,12.1-7.8,18.3c-0.8,2.1,0.4,4.3,2.4,5
										c1.2,0.4,2.4,0.8,3.5,1.2c2,0.7,4.2-0.4,4.9-2.4c2.1-5.8,4.5-11.4,7.2-16.9C241.5,696.9,240.7,694.5,238.8,693.6z"/>
								</g>
								<path class="st6" d="M417.9,479.5c-5.2-3-10.2-6.3-15-9.9c-13.6-10.1-32.7-8.4-44.8,3.5c-23.6,23.3-47.1,46.6-70.7,70
									c-14.2,14-13.4,37.1,1.5,50.4c16.9,15.2,35.5,28.2,55.6,38.9c17.9,9.6,40.2,1.9,48.2-16.8c13.2-30.9,26.5-61.8,39.7-92.7
									C439.2,506.9,433.1,488.2,417.9,479.5z"/>
								<path d="M310.9,616l-12.7-9.7c-12.8-9.8-31.1-7.4-40.9,5.4l-10.3,13.5l54,41.2l14.2-18.6C322.8,637.9,320.9,623.6,310.9,616
									z"/>
								<path d="M274.7,651l-10.5-8c-1.7-1.3-4.2-1-5.5,0.7l-11.1,14.5c-1.3,1.7-1,4.2,0.7,5.5l10.5,8c1.7,1.3,4.2,1,5.5-0.7
									l11.1-14.5C276.7,654.7,276.4,652.3,274.7,651z"/>
								<g>
									<path d="M236.4,658c-2.3-1.6-4.6-3.3-6.9-4.9c-1.8-1.2-4.2-0.8-5.5,0.9c-3.1,4.5-6,9-8.8,13.7c-1.1,1.9-0.4,4.3,1.5,5.4
										c2.5,1.3,4.9,2.7,7.4,4c1.9,1,4.2,0.4,5.3-1.5c2.4-4.2,5.1-8.2,7.8-12.2C238.5,661.7,238.1,659.3,236.4,658z"/>
									<path d="M220.5,678.9c-1.1-0.6-2.2-1.1-3.3-1.7c-1.9-1-4.3-0.2-5.3,1.8c-2.9,6-5.5,12.1-7.8,18.3c-0.8,2.1,0.4,4.3,2.4,5
										c1.2,0.4,2.4,0.8,3.5,1.2c2,0.7,4.2-0.4,4.9-2.4c2.1-5.8,4.5-11.4,7.2-16.9C223.1,682.2,222.4,679.9,220.5,678.9z"/>
								</g>
								<path d="M256.3,636.3l-10.5-8c-1.7-1.3-4.2-1-5.5,0.7l-11.1,14.5c-1.3,1.7-1,4.2,0.7,5.5l10.5,8c1.7,1.3,4.2,1,5.5-0.7
									l11.1-14.5C258.4,640,258,637.6,256.3,636.3z"/>
								<g>
									<path d="M273,687.6c-2.3-1.6-4.6-3.3-6.9-4.9c-1.8-1.2-4.2-0.8-5.5,0.9c-3.1,4.4-6,9-8.8,13.7c-1.1,1.9-0.4,4.3,1.5,5.4
										c2.5,1.3,4.9,2.7,7.4,4c1.9,1,4.2,0.4,5.3-1.5c2.4-4.2,5.1-8.2,7.8-12.2C275.1,691.3,274.7,688.9,273,687.6z"/>
									<path d="M257.1,708.5c-1.1-0.6-2.2-1.1-3.3-1.7c-1.9-1-4.3-0.2-5.3,1.8c-2.9,6-5.5,12.1-7.8,18.3c-0.8,2.1,0.4,4.3,2.4,5
										c1.2,0.4,2.4,0.8,3.5,1.2c2,0.7,4.2-0.4,4.9-2.4c2.1-5.8,4.5-11.4,7.2-16.9C259.8,711.8,259,709.5,257.1,708.5z"/>
								</g>
								<path d="M293,665.9l-10.5-8c-1.7-1.3-4.2-1-5.5,0.7l-11.1,14.5c-1.3,1.7-1,4.2,0.7,5.5l10.5,8c1.7,1.3,4.2,1,5.5-0.7
									l11.1-14.5C295,669.6,294.7,667.2,293,665.9z"/>
								<g>
									<path d="M304.3,677.6c2.7,0.7,5.5,1.4,8.2,2.1c2.1,0.5,3.4,2.7,2.8,4.8c-1.4,5.2-3,10.4-4.8,15.5c-0.7,2.1-3.1,3.1-5.1,2.3
										c-2.6-1-5.2-2-7.9-3c-2-0.8-3-3-2.3-5c1.6-4.5,3-9.2,4.3-13.9C300.1,678.3,302.2,677,304.3,677.6z"/>
									<path d="M298.6,703.2c1.1,0.5,2.3,1,3.4,1.5c2,0.9,2.9,3.2,2.1,5.2c-2.7,6.1-5.7,12-8.9,17.7c-1.1,1.9-3.5,2.5-5.4,1.4
										c-1.1-0.6-2.1-1.3-3.2-1.9c-1.8-1.1-2.4-3.4-1.4-5.3c3-5.3,5.8-10.8,8.3-16.5C294.3,703.3,296.6,702.3,298.6,703.2z"/>
								</g>
								<path d="M316.7,650.8c0.2-0.2,0.3-0.4,0.5-0.7l3.8,0.8c2,0.4,3.3,2.5,2.9,4.5l-4,18.2c-0.4,2-2.5,3.3-4.5,2.9l-11.5-2.6
									c-1.4-0.3-2.5-1.4-2.8-2.7L316.7,650.8z"/>
							</g>
							<path class="st6" d="M642.1,613.5c31.7-38.2,64.1-75.8,97.3-112.9c6.6-7.4,5.3-18.9-2.8-24.7c-64.4-45.8-136.7-79-213.3-97.8
								c-10.2-2.5-20.1,4.8-20.6,15.3c-2.4,48.7-6.7,97.1-13.1,145.3c-1.1,8,4.3,14.2,11.4,18.1c14.9,8.2,20.3,8.5,112.2,56.3
								c3.5,1.2,4.5,2.1,9,4.8C629,621.2,637.2,619.4,642.1,613.5z"/>
							<path d="M624.6,448.1l-5.9-2.7c-11.7-5.4-16.8-19.3-11.3-31l22.4-48.4l48.3,22.4l-22.4,48.3
								C650.2,448.5,636.3,453.6,624.6,448.1z"/>
							
								<ellipse transform="matrix(0.429 -0.9033 0.9033 0.429 156.6908 787.1016)" class="st6" cx="700.9" cy="269.6" rx="138.8" ry="144.2"/>
							<path d="M769.4,349.4c-40.8-30.3-87.1-51.6-136.7-62.9c-10.1-2.3-15.7-13.2-12.8-24.8c2.5-9.7,4.9-19.5,7.4-29.2
								c3.1-12.2,14.5-20.5,25-18c57.7,13.4,111.5,38.6,158.7,74.5c8.6,6.5,9.6,20.5,2.3,30.7c-5.6,7.8-11.2,15.7-16.9,23.5
								C789.5,352.7,777.6,355.5,769.4,349.4z"/>
							<path class="st8" d="M788.3,310.6c-3.7,8-13.5,11.3-21.9,7.5c-8.4-3.9-12.2-13.6-8.4-21.6s13.5-11.3,21.9-7.4
								C788.2,292.9,792,302.6,788.3,310.6z"/>
							<path class="st8" d="M693.6,263.5c-3.7,8-13.5,11.3-21.9,7.4c-8.4-3.9-12.2-13.5-8.4-21.6c3.7-8,13.5-11.3,21.9-7.4
								C693.5,245.8,697.3,255.5,693.6,263.5z"/>
							<path class="st1" d="M586.6,179.5c2,0.9,16.9,10.4,18.8,11.3c36.6-78.9,103.6-100.7,159.7-80.4c1-2.2,1.9-4.4,2.4-6.7
								C708.7,82.4,625.1,96.5,586.6,179.5z"/>
							<path class="st8" d="M606.6,168.9c16.9,8.4,17.1,41.6,0.7,73.8c-15.6,30.7-41.1,50.4-58,44.8c0,0,0,0,0,0
								c-21.9-13.6-39.8-47.4-27-72.8l9.3-20.1C544.2,167.8,581.6,156.5,606.6,168.9z"/>
							<g>
								<g>
									<path d="M939.7,793c-1.7,2.3-3.4,4.5-5.1,6.8c-1.3,1.7-0.9,4.2,0.8,5.5c4.4,3.2,8.9,6.2,13.5,9.1c1.9,1.2,4.3,0.5,5.4-1.4
										c1.4-2.4,2.8-4.9,4.2-7.3c1.1-1.8,0.5-4.2-1.3-5.3c-4.1-2.5-8.1-5.2-12-8.1C943.4,791,941,791.3,939.7,793z"/>
									<path d="M960.2,809.4c-0.6,1.1-1.2,2.2-1.7,3.3c-1,1.9-0.3,4.3,1.6,5.3c5.9,3,11.9,5.8,18.1,8.2c2,0.8,4.3-0.3,5.1-2.3
										c0.4-1.2,0.8-2.3,1.3-3.5c0.7-2-0.3-4.2-2.2-5c-5.7-2.3-11.3-4.8-16.8-7.6C963.5,806.8,961.2,807.5,960.2,809.4z"/>
								</g>
								<path class="st6" d="M759,619.9c-3.6,4.8-7.5,9.4-11.7,13.7c-11.8,12.3-12.5,31.4-2.2,44.9c20.1,26.3,40.3,52.7,60.4,79
									c12.1,15.9,35,18,50.1,4.9c17.2-14.9,32.4-31.7,45.6-50.3c11.8-16.6,6.9-39.6-10.5-49.9c-28.9-17-57.9-34.1-86.9-51.1
									C788.8,602.3,769.5,606,759,619.9z"/>
								<path d="M884.3,735.6l-10,12.5c-10,12.6-8,31,4.5,41l13.3,10.7l42.4-53.1L916.2,732C906.4,724.1,892.1,725.8,884.3,735.6z"
									/>
								<path d="M918.4,772.6l-8.2,10.3c-1.3,1.7-1.1,4.2,0.6,5.5l14.2,11.4c1.7,1.3,4.1,1.1,5.5-0.6l8.2-10.3
									c1.3-1.7,1.1-4.2-0.6-5.5L923.9,772C922.2,770.6,919.7,770.9,918.4,772.6z"/>
								<g>
									<path d="M924.6,811.1c-1.7,2.3-3.4,4.5-5.1,6.8c-1.3,1.7-0.9,4.2,0.8,5.5c4.4,3.2,8.9,6.2,13.5,9.1
										c1.9,1.2,4.3,0.5,5.4-1.4c1.4-2.4,2.8-4.9,4.2-7.3c1.1-1.8,0.5-4.2-1.3-5.3c-4.1-2.5-8.1-5.2-12-8.1
										C928.3,809,925.9,809.4,924.6,811.1z"/>
									<path d="M945.1,827.5c-0.6,1.1-1.2,2.2-1.7,3.3c-1,1.9-0.3,4.3,1.6,5.3c5.9,3,11.9,5.8,18.1,8.2c2,0.8,4.3-0.3,5.1-2.3
										c0.4-1.2,0.8-2.3,1.3-3.5c0.7-2-0.3-4.2-2.2-5c-5.7-2.3-11.3-4.8-16.8-7.6C948.5,824.9,946.1,825.6,945.1,827.5z"/>
								</g>
								<path d="M903.3,790.6l-8.2,10.3c-1.3,1.7-1.1,4.2,0.6,5.5l14.3,11.4c1.7,1.3,4.1,1.1,5.5-0.6l8.2-10.3
									c1.3-1.7,1.1-4.2-0.6-5.5L908.8,790C907.1,788.7,904.7,788.9,903.3,790.6z"/>
								<g>
									<path d="M955,775.1c-1.7,2.3-3.4,4.5-5.1,6.8c-1.3,1.7-0.9,4.2,0.8,5.5c4.4,3.2,8.9,6.2,13.5,9.1c1.9,1.2,4.3,0.5,5.4-1.4
										c1.4-2.4,2.8-4.9,4.2-7.3c1.1-1.8,0.5-4.2-1.3-5.3c-4.1-2.5-8.1-5.2-12-8.1C958.7,773,956.3,773.4,955,775.1z"/>
									<path d="M975.5,791.5c-0.6,1.1-1.2,2.2-1.7,3.3c-1,1.9-0.3,4.3,1.6,5.3c5.9,3,11.9,5.8,18.1,8.2c2,0.8,4.3-0.3,5.1-2.3
										c0.4-1.2,0.8-2.3,1.3-3.5c0.7-2-0.3-4.2-2.2-5c-5.7-2.3-11.3-4.8-16.8-7.6C978.8,788.9,976.5,789.6,975.5,791.5z"/>
								</g>
								<path d="M933.7,754.6l-8.2,10.3c-1.3,1.7-1.1,4.2,0.6,5.5l14.3,11.4c1.7,1.3,4.1,1.1,5.5-0.6l8.2-10.3
									c1.3-1.7,1.1-4.2-0.6-5.5L939.2,754C937.5,752.7,935,752.9,933.7,754.6z"/>
								<g>
									<path d="M945.6,743.6c0.8-2.7,1.5-5.5,2.3-8.2c0.6-2.1,2.8-3.3,4.8-2.7c5.2,1.5,10.3,3.2,15.4,5.1c2.1,0.8,3,3.1,2.2,5.2
										c-1.1,2.6-2.2,5.2-3.2,7.8c-0.8,2-3,2.9-5,2.2c-4.5-1.7-9.1-3.2-13.8-4.6C946.3,747.8,945,745.6,945.6,743.6z"/>
									<path d="M971.1,749.8c0.5-1.1,1-2.3,1.6-3.4c0.9-2,3.2-2.9,5.2-1.9c6,2.8,11.9,5.9,17.5,9.3c1.9,1.1,2.4,3.6,1.2,5.4
										c-0.7,1.1-1.3,2.1-2,3.2c-1.1,1.8-3.5,2.3-5.3,1.3c-5.3-3.1-10.7-6-16.3-8.6C971.1,754.1,970.2,751.8,971.1,749.8z"/>
								</g>
								<path d="M919.2,730.5c-0.2-0.2-0.4-0.3-0.6-0.5l0.9-3.8c0.5-2,2.5-3.3,4.5-2.8l18.1,4.4c2,0.5,3.2,2.5,2.8,4.5l-2.8,11.5
									c-0.3,1.4-1.4,2.4-2.7,2.8L919.2,730.5z"/>
							</g>
						</g>
						<path d="M561.1,1146.5c2.2-6.6,3.4-13.6,3.4-20.9c0-36.9-29.9-66.7-66.7-66.7s-66.7,29.9-66.7,66.7c0,7.3,1.2,14.3,3.4,20.9
							H561.1z"/>
						<path d="M728.4,1146.5c2.2-6.6,3.4-13.6,3.4-20.9c0-36.9-29.9-66.7-66.7-66.7s-66.7,29.9-66.7,66.7c0,7.3,1.2,14.3,3.4,20.9
							H728.4z"/>
					</g>
					<path class="st8" d="M565.5,47.2c0,7.1-5.8,12.9-12.8,12.9c-7.1,0-12.8-5.8-12.8-12.9c0-7.1,5.8-12.9,12.8-12.9
						C559.7,34.3,565.5,40.1,565.5,47.2z"/>
					<g>
						<polygon class="st8" points="569.1,185.6 562.2,119.7 579.5,108.3 553.7,100 571,87.9 556.1,81 549.6,47.8 555.7,46.6 
							561.6,76.7 583.4,86.9 567.6,97.9 593.8,106.3 568.8,122.8 575.3,185 						"/>
					</g>
				</g>
			</g>
		</g>
	</g>
</g>
</svg>
